<?xml version="1.0" encoding="utf-8"?>
<!-- Generator: Adobe Illustrator 22.1.0, SVG Export Plug-In . SVG Version: 6.00 Build 0)  -->
<svg version="1.1" id="IconeConsultar-b" xmlns="http://www.w3.org/2000/svg" xmlns:xlink="http://www.w3.org/1999/xlink" x="0px" y="0px"
	 viewBox="0 0 16 16" style="enable-background:new 0 0 16 16;" xml:space="preserve">
<style type="text/css">
	.st0{fill:#FFFFFF;}
	.st1{fill:#56A4C8;}
</style>
<path class="st0" d="M72.8-77.1c0-7.2,0-14.4,0-21.6c0-0.4,0-0.9-0.1-1.3c0-0.6-0.1-1.1-0.2-1.7c0.2-0.7,0.1-1.3-0.5-1.7
	c-0.5-1.4-1.3-2.7-2.2-3.8c-0.6-1.6-2-2.4-3.6-3c-0.2-0.2-0.5-0.3-0.7-0.4c-0.3-0.3-0.7-0.7-1.2-0.5c-0.5-0.2-1-0.3-1.5-0.4
	c-0.4-0.5-0.8-0.4-1.2-0.1c-0.2,0-0.3,0-0.5,0c-0.1-0.1-0.2-0.1-0.3-0.1c-0.4-0.2-0.8-0.1-1.2-0.1c-2.9,0-5.7,0-8.6,0
	c-4.9-0.1-9.8-0.1-14.7-0.1c-0.3-0.2-0.6-0.2-0.9,0.1c0,0.8,0,1.6,0,2.4l0.1,0.1c0,2.2,0,4.4,0,6.6c0,1.8,0,3.7,0,5.7
	c0,0.1,0,0.1,0,0.2c0,2.3,0,4.6,0,6.8c0,2.7,0,5.3,0,7.9c0,3.2,0,6.3,0,9.3c0,0,0,0,0.1,0c0,0,0,0.1-0.1,0.1c0,2.8,0,5.7,0,8.6
	c2.3,0,4.6-0.1,6.9-0.1v-0.1l0,0c2.4,0.1,4.7,0.1,7,0c2,0.1,3.9,0.1,5.7,0c1.5,0.1,3,0.1,4.6,0c0.1,0.1,0.2,0.2,0.4,0.2
	c0.6-0.1,1.1,0,1.7-0.1c1-0.1,1.9-0.4,2.7-0.8c-0.1,0-0.2,0-0.3,0c0.1,0,0.2,0,0.3-0.1c0.9-0.3,1.8-0.7,2.6-1.4c0,0,0,0,0,0.1
	c1.1-0.6,1.8-1.5,2.5-2.4c0.1,0,0.3,0,0.4,0c0.8-0.9,1.4-2,1.9-3.1c0.3-0.3,0.6-0.5,0.4-1c0-0.2,0-0.3,0-0.5
	c0.5-0.3,0.5-0.7,0.2-1.2c0-0.4,0.1-0.8,0.2-1.2C72.9-76.2,72.8-76.7,72.8-77.1z"/>
<path class="st1" d="M-18.3-66.2c1.4,0,2.8,0,4.3,0c-1.4,0.5-2.8,0.1-4.3,0.2C-18.3-66-18.3-66.1-18.3-66.2z"/>
<g id="XMLID_1_">
	<g>
		<path class="st0" d="M2.9-23c-1,0.5-2.2,0.2-3.2,0.3c-0.4,0-0.9,0-1.3,0c-0.6,0-1.2,0.1-1.8-0.3c-0.4-0.1-0.8,0.1-1-0.2
			c0-0.1,0-0.2,0.1-0.3c-0.1,0.1-0.2,0.2-0.3,0.3c-2.5-0.4-4.8-1.6-6.8-3.5c-2.4-2.1-3.9-4.7-4.5-7.8c-0.3-1.2-0.3-2.4-0.3-3.7
			c0-8,0-16,0-24c-0.7-0.3-1.4,0-2.1-0.2c0,0,0,0-0.1,0c0.1,0,0.1,0.1,0.2,0.1s0.1,0.1,0.1,0.1l-0.1,0.1c-3.3-0.1-6.5-0.1-9.6-0.1
			c-4.9,0-9.9,0.1-14.8,0c-1.6,0-3-0.5-4.3-1.2c-4.6-2.2-7.2-5.9-8.4-10.8c-0.1-0.4,0-0.8,0-1.2c0-8.5-0.1-16.9,0.1-25.4
			c0.1-4,2.2-7.2,5.2-9.8c0.9-0.8,1.9-1.6,3.1-1.8c0.2-0.1,0.3-0.3,0.5-0.4c0.7-0.7,1.6-0.6,2.4-0.7c2.7-0.4,5.4-0.3,8.1-0.2
			l0.1,0.1l0,0c2.8,0,5.5,0,8.3,0c0-0.1,0-0.1,0-0.2c2.6,0,5.1,0,7.7,0v0.1c1.4,0,2.8-0.1,4.2-0.1c0.1-0.1,0.2-0.1,0.3-0.2
			c0.5-0.1,1-0.2,1.4,0.3c0.3,1.3,0.3,2.5,0,3.8c-0.5,0.6-1.1,0.2-1.7,0.5c-1.1,0.2-2.4,0.1-3.5,0.1c-0.2,0-0.5,0-0.8-0.5
			c0,0,0,0,0,0.1c-0.4,0.3-0.9,0.3-1.4,0.3c-1.6,0-3.3,0-4.9,0c-0.4,0.1-0.9,0.2-1.3-0.2v0.1c-0.4,0.3-0.9,0.3-1.4,0.3
			c-1.6,0-3.3,0-4.9,0c-0.5-0.1-1.1,0-1.4-0.5c-0.1,0-0.1-0.1-0.2-0.1c0,0.1,0,0.1,0,0.2c-0.6,0.4-1.2,0.3-1.8,0.3
			c-2.3,0.1-4.6-0.2-6.9,0.4c-0.8,0.2-1.5,0.8-2.4,0.7c-0.1,0.5-0.5,0.7-0.8,1c-2.6,2.3-3.8,5.1-3.8,8.6c0.1,7.2,0.1,14.4,0,21.6
			c0,3.2,1.2,5.7,3.4,7.9c0.3,0.3,0.8,0.6,0.9,1.1v0.1c0.5-0.3,0.8,0,1.2,0.2c1.6,0.8,3.3,1.1,5.1,1.1c3.6,0,7.1,0,10.7,0
			c0.6,0,1.2-0.1,1.7,0.3v0.1l0,0c0.2-0.3,0.6-0.4,1-0.4c2.7,0,5.3-0.1,8,0c0.2,0,0.4,0.1,0.6,0.2l0.1,0.1c1.3-0.3,2.6,0,3.9-0.2
			c0.1,0,0.3-0.1,0.4-0.1c1.5,0.4,1.9,0.9,2.1,2.7c0.1,7.4,0,14.9,0,22.3c0,3,0,6.1,1,9c0,0.1,0,0.1,0,0.2c0.5,0.1,0.7,0.6,1,1
			c1.3,1.8,3.1,2.9,5.1,3.7c0.4,0.1,0.9,0.1,0.9,0.6h0.1c0.5-0.4,1-0.4,1.6-0.4c7.6,0,15.1,0,22.7,0c0.5,0,1,0,1.5,0.3
			c0,0.1,0,0.2,0,0.2c0.1,0,0.1,0,0.2,0c0.9-0.6,1.7-0.9,2.7-0.8c0.9-1,2.1-1.5,3-2.4c1.3-1.3,2.1-2.7,2.7-4.4
			c0.1-0.3,0.1-0.6,0.3-0.8v-0.1c0-9.4,0-18.9,0-28.3c0-0.1,0-0.1,0-0.2c1.6,0,2.6,0,4,0h0.7c-0.2,0.5-0.1,0.9-0.1,1.4
			c0,8.3,0,16.6,0,24.8c-0.1,0.2,0,0.7-0.1,1.1c-0.3,3.3-1.4,6.2-3.6,8.7c-0.1,0-0.1,0-0.1-0.1c0,0,0,0,0,0.1
			c-1.8,2.1-3.9,3.6-6.5,4.3c-0.1,0.1-0.2,0.1-0.3,0.1c-0.7,0.3-1.5,0.3-2.2,0.5c-0.3,0.3-0.7,0.3-1.1,0.3c-1.3-0.1-2.7,0.3-4-0.3
			c-2.4,0.3-4.6,0.3-6.9,0v0.1C8.1-22.9,5.5-22.7,2.9-23C2.9-23.1,2.9-23,2.9-23z"/>
	</g>
</g>
<path class="st0" d="M33.5-138.4c0-0.5,0.2-1.2-0.2-1.7c0,0.1,0,0.1,0,0.2c0.1-1.9-0.7-3.4-1.4-5c-0.2-0.5-0.3-0.9-0.8-1.2
	c-0.1,0-0.1-0.1-0.2-0.2c-0.4-1.1-1.2-1.8-2.3-2.2c-2.1-1.5-4.4-2.4-7-2.5c-4.1-0.1-8.2,0-12.3,0v-0.1c-1.4,0-2.7,0-4.1,0
	c0,0.1,0.1,0.1,0.1,0.2L5.2-151c-1.6,0-3.1,0-4.6,0c-0.9,0-1.9,0-2.9,0h-0.1c-1.2,0.1-2.4,0.4-3.5,0.7c-0.3,0.2-0.7,0.1-0.8,0.5
	c0,0,0,0,0-0.1c-0.1-0.1-0.2-0.1-0.3,0c-1.6,0.8-3.2,1.7-4.1,3.3c-0.4,0-0.4,0.3-0.5,0.5c-0.4,0.3-0.8,0.6-0.8,1.2
	c-0.5,0.8-1,1.6-1.2,2.5c0,0.1,0,0.2,0,0.3c0-0.1-0.1-0.2-0.1-0.2c-0.1,0.7-0.2,1.4-0.4,2.1c-0.2,1.1-0.1,2.2-0.1,3.2
	c0,0.2,0.1,0.4,0.2,0.5c-0.1,2.3-0.1,4.7,0,7c0,0.1,0.1,0.1,0.1,0.2c-0.1,4.7-0.1,9.5-0.1,14.3l0,0v1.2h47.5v-1.2l0,0
	C33.5-122.7,33.5-130.6,33.5-138.4z"/>
<path class="st0" d="M30.9-75.7c-0.1-0.1-0.1-0.2-0.2-0.3C30.8-75.9,30.9-75.8,30.9-75.7c0.1-1.8,0.1-3.5,0.1-5.2l0,0l0,0
	c0-2.6,0-5,0-7.6c0-2.9,0-5.8,0-8.8c-0.1-4-0.1-7.9,0.1-12c-0.1,0-0.2,0-0.3,0v-0.3h-45.1v0.5l0,0c0,3.4,0,6.6,0,10
	c0.1,0.1,0.1,0.2,0.2,0.3c-0.1,4.1-0.1,8.2,0,12.2c-0.1,4-0.1,7.8,0,11.6c0.1,0,0.2,0,0.2,0c-0.1,0-0.3,0.2-0.4,0.4
	c-0.3,2.7-0.2,5.3-0.1,8c0,0.2,0.1,0.3,0.2,0.5c1.1,0.2,1.8,0.9,2,2.1c14.4,0,28.7,0,43,0c0-0.1,0-0.2,0-0.2h0.1
	c0.1-1.2,0.1-2.4,0-3.6C31-70.4,31-73.1,30.9-75.7z M-7.1-109L-7.1-109L-7.1-109C-7.1-109-7.1-109-7.1-109z M10-109L10-109L10-109
	L10-109z"/>
</svg>
