<?xml version="1.0" encoding="utf-8"?>
<!-- Generator: Adobe Illustrator 22.1.0, SVG Export Plug-In . SVG Version: 6.00 Build 0)  -->
<svg version="1.1" id="Camada_1" xmlns="http://www.w3.org/2000/svg" xmlns:xlink="http://www.w3.org/1999/xlink" x="0px" y="0px"
	 viewBox="0 0 16 16" style="enable-background:new 0 0 16 16;" xml:space="preserve">
<style type="text/css">
	.st0{fill:#214576;}
	.st1{fill:#214577;}
	.st2{fill:#E43D12;}
	.st3{fill:#436AAC;}
	.st4{fill:#E9610B;}
	.st5{fill:#68C1D2;}
	.st6{fill:#E64C10;}
	.st7{fill:#E44411;}
	.st8{fill:#EB6C06;}
	.st9{fill:#E7590D;}
	.st10{fill:#529BC4;}
	.st11{fill:#E7530F;}
	.st12{fill:#E43D13;}
	.st13{fill:#EC7104;}
	.st14{fill:#61B6CE;}
	.st15{fill:#5BADCB;}
	.st16{fill:#5096C1;}
	.st17{fill:#446FAE;}
	.st18{fill:#5BACCB;}
	.st19{fill:#4C8EBE;}
	.st20{fill:#57A5C8;}
	.st21{fill:#539DC5;}
	.st22{fill:#4678B3;}
	.st23{fill:#56A4C8;}
	.st24{fill:none;}
	.st25{fill:#EE8100;}
	.st26{fill:#EC7602;}
	.st27{fill:#E85A0D;}
	.st28{fill:#EB6B07;}
	.st29{fill:#EA6B07;}
	.st30{fill:#E7580D;}
	.st31{fill:#F7AA00;}
	.st32{fill:#EC7403;}
	.st33{fill:#4471B0;}
	.st34{fill:#6F778B;}
	.st35{fill:#477BB5;}
	.st36{fill:#4983B9;}
	.st37{fill:#4B8BBD;}
	.st38{fill:#4A86BB;}
	.st39{fill:#477EB7;}
	.st40{fill:#EE8000;}
	.st41{fill:#4F95C1;}
	.st42{fill:#768F91;}
	.st43{fill:#EF8600;}
	.st44{fill:#F18F00;}
	.st45{fill:#F39900;}
	.st46{fill:#F5A200;}
</style>
<path class="st0" d="M29.4,100.9c-3-0.2-5.8-1.2-8.6-2.2c-0.9-0.1-1.6-0.4-2.2-1.1c-0.2-0.1-0.3-0.2-0.5-0.3
	c-0.6,0.1-0.9-0.3-1.2-0.7c-1.4-1-2.7-2.1-4.1-3.1c-1.1-0.5-1.9-1.3-2.4-2.4c-1.7-2-3.2-4-4.6-6.2c-0.4-0.3-0.8-0.6-0.8-1.2
	c-0.2-1.2-1-2.2-1.4-3.3c-1.1-3-2.1-6.1-2.6-9.3C1,70,1,69.1,0.8,68.2c-0.2-0.6,0.1-1.2-0.2-1.7c0-10.2,0-20.4,0-30.6
	c0.2-0.5,0-1,0.2-1.5C1.3,31.6,2.1,29,5,27.7c0.1-0.1,0.3-0.1,0.4-0.1c0.4-0.4,0.9-0.6,1.4-0.4c0.6-0.1,1.3-0.2,1.9-0.3
	c0.4-0.2,0.9,0,1.3-0.2c2.1,0,4.3-0.2,6.4,0.2c0.6-0.3,1-0.3,1.4,0.2c2.4,0.4,4.6,1.3,6.2,3.2c0.6,0.3,0.6,0.9,0.7,1.5
	c1.3,4.6,0.7,9.2,0.7,13.9c0.1,6.3,0,12.6,0.1,18.9c0.2,0.6-0.1,1.2,0.2,1.7c-0.1,0.7,0.1,1.3,0.3,1.9c0.8,0.8,1,1.9,1.3,2.9
	c0.4,1,1.2,1.7,2,2.4c0.6,0.1,1,0.4,1.2,0.9c1.6,1.1,3.4,1.8,5.4,1.7c1.2,0.2,2.4,0.2,3.6,0c0.4,0,0.7,0,1.1-0.1
	c0.5-0.7,1.3-0.6,1.9-0.7c2.7-1,4.7-2.6,6.1-5.2c0.2-0.5,0.5-1,0.7-1.4c0-0.6,0-1.2,0.4-1.8c0.1-0.3,0.5-0.5,0.3-0.8
	c0.2-0.4,0-0.9,0.2-1.3c0-4.9,0-9.8,0-14.7c0-4.9,0-9.8,0-14.7c0.2-0.4,0-0.9,0.2-1.3c0.1-1.4,0.7-2.6,1.2-3.8
	c-0.1-0.6,0.3-1,0.8-1.2c1-0.8,2.1-1.4,3.3-1.7c0.5-0.5,1.2-0.7,1.9-0.5c0.2,0,0.5,0,0.7,0c0.4-0.2,0.9,0,1.3-0.2c2,0,4.1,0,6.1,0
	c0.4,0.2,0.9,0,1.3,0.2c1.3,0.3,2.6,0.7,3.8,1c0.7,0,1.2,0.3,1.4,1c0.2,0.2,0.5,0.5,0.7,0.7c0.9,0.6,1.3,1.5,1.3,2.6
	c0.4,1.2,0.6,2.4,0.7,3.6c0.1,0.3,0.1,0.7,0.1,1.1c0,18.2,0,36.3,0,54.5c0,0.4,0.1,0.7-0.1,1.1c-0.1,1.6-0.5,3.2-1.3,4.6
	c-1,1.9-2.5,2.9-4.5,3.5c-0.3,0.1-0.5,0.2-0.8,0.3c-0.3,0.3-0.7,0.4-1.2,0.3c-0.4-0.2-0.8-0.1-1.2,0c-0.6,0.2-1.2-0.1-1.8,0.2
	c-1.1,0-2.3,0-3.4,0c-0.6-0.2-1.2,0-1.8-0.2c-1.5-0.2-3-0.3-4.5-1c-2.3-1-3.6-2.8-4-5.3c-0.2-0.4,0-0.9-0.2-1.3
	c0.1-0.3,0.2-0.7-0.1-0.9c-0.3-0.2-0.5,0.3-0.7,0.5c-1.7,1.8-3.5,3.5-5.6,4.8c-2.9,1.8-6,2.9-9.4,3.1c-0.6,0.1-1.1,0.1-1.7,0
	c-0.8,0-1.5,0-2.3-0.1C30.3,100.8,29.8,101,29.4,100.9z"/>
<path class="st0" d="M-139.1,26.9c1.5,0.2,3,0.4,4.5,0.9c2.7,0.8,3.9,2.9,4.6,5.4c0.2,0.5,0,1,0.2,1.5c0,0.3-0.2,0.9,0.4,0.3
	c0.8-0.7,1.5-1.3,2.2-2.1c2.9-3.3,6.7-4.9,10.9-5.8c0.5-0.1,0.9-0.2,1.4-0.3c1.5-0.1,3-0.1,4.5,0c6.2,0.6,11.8,2.6,16.6,6.5
	c6.2,5.2,10.4,11.7,12.4,19.5c0.6,2.3,0.9,4.6,1.2,6.9c0.2,0.7-0.1,1.3,0.2,2c0,8.5,0,16.9,0,25.4c0,1.6,0,3.1,0,4.7
	c-0.2,0.6,0,1.2-0.2,1.8c-0.6,2.5-1.3,4.8-3.7,6.2c-1.5,0.9-3.2,1.1-5,1.3c-0.6,0.2-1.2-0.1-1.8,0.2c-1.1,0-2.3,0-3.4,0
	c-0.6-0.2-1.2,0-1.8-0.2c-1.7-0.2-3.3-0.6-4.9-1.2c-2.4-0.9-3.4-2.8-4-5.2c-0.4-1.5-0.2-3-0.3-4.5c-0.1-0.4-0.1-0.9-0.1-1.3
	c0-8.6,0-17.2,0-25.8c0-0.4,0.1-0.9-0.1-1.3c-0.5-5.4-4.1-9-9.3-10c-2.7-0.5-5.5-0.4-8.1,0.7c-3.7,1.6-5.9,4.3-6.8,8.2
	c-0.3,1.3-0.3,2.5-0.3,3.8c0,9.2,0,18.3,0,27.5c-0.2,0.5,0,1-0.2,1.5c-0.3,1.1-0.6,2.2-1.1,3.3c-0.9,2-2.5,3.1-4.5,3.7
	c-1,0.3-2.1,0.5-3.1,0.6c-0.6,0.2-1.2-0.1-1.8,0.2c-1.2,0-2.4,0-3.6,0c-0.6-0.2-1.2,0-1.8-0.2c-1.6-0.1-3.2-0.4-4.7-1
	c-2.2-1-2.9-3.1-3.7-5.1c-0.3-0.8-0.2-1.7-0.3-2.5c-0.1-0.3-0.1-0.7-0.1-1.1c0-18.3,0-36.6,0-55c0-0.4-0.1-0.7,0.1-1.1
	c0.1-1.5,0.4-2.8,1-4.2c1.2-2.7,3.4-3.4,5.9-3.9c0.8-0.1,1.6-0.2,2.5-0.3C-142.9,26.7-141,26.7-139.1,26.9z"/>
<path class="st1" d="M136.5,75.3c0-7.6,0-15.3-0.1-22.9c-0.1-0.1-0.2-0.2-0.3-0.4c-0.4-0.4-0.9-0.6-1.4-0.4c-0.4,0-0.8,0-1.1,0.1
	c-1.2,0.1-2.4,0.1-3.6,0c-4.3-0.5-5.7-3.3-6.2-7c-0.2-1.2-0.1-2.4-0.3-3.6c-0.2-0.3-0.3-0.6-0.3-1c0.2-0.6,0.2-1.2,0-1.8
	c-0.1-0.4,0-0.7,0.3-1c0-0.4,0-0.7,0.1-1.1c0.2-0.4,0-0.9,0.2-1.3c0.1-1.7,0.7-3.2,1.3-4.8c0.7-1.6,1.9-2.4,3.6-2.6
	c0.6-0.1,1.3-0.2,1.9-0.3c0.6-0.1,1.3-0.1,1.9,0c0.9,0.2,1.9,0.4,2.8,0.3c0.4,0.1,0.8,0.2,1.2,0c0-5.9,0-11.8,0.1-17.6
	c0.2-0.5,0-0.9-0.1-1.3c0-0.3,0-0.7,0.3-0.9c0.5-0.7,0.6-1.6,0.9-2.4c0-0.6,0.3-0.9,0.8-1.2c1.2-1.3,2.8-1.6,4.3-2.1
	c0.4-0.6,0.9-0.4,1.4-0.2c0.5-0.1,0.9-0.1,1.4-0.2c0.9-0.2,1.8,0.1,2.7-0.2c0.4,0.1,0.8,0.1,1.3,0c0.7,0.3,1.5,0,2.2,0.2
	c0.6,0.1,1.3,0.4,1.9,0.3c0.7-0.2,1.2,0,1.7,0.5c0.2,0.3,0.6,0.3,0.9,0.4c0.8-0.1,1.3,0.3,1.7,0.8c1.9,1.3,2.3,3.3,2.9,5.3
	c0.2,0.4,0,0.9,0.2,1.3c0,5.7,0,11.5,0,17.2c0,0.2,0,0.4,0.3,0.4c0.5-0.2,1,0.1,1.5-0.2c0.5,0,0.9,0,1.4-0.1
	c0.6-0.2,1.2,0.1,1.8-0.2c0.7,0,1.4,0,2.1-0.1c1.8-0.1,3.5-0.1,5.3,0c0.6,0.1,1.3,0.2,1.9,0.2c0.6-0.4,1-0.2,1.4,0.2
	c3.9,1.1,5.4,4,5.8,7.7c0.2,0.4,0,0.9,0.2,1.3c0,2,0,3.9,0,5.9c-0.2,0.4,0,0.9-0.2,1.3c-0.1,0.6-0.2,1.3-0.4,1.9
	c0.1,0.5,0.1,0.9-0.4,1.2c-0.6,1.7-1.7,2.9-3.2,3.8c-0.5,0.7-1.2,0.7-1.9,0.7c-0.5,0.1-0.9,0.2-1.4,0.3c-0.4,0.2-0.9,0-1.3,0.2
	c-1.8,0-3.6,0-5.3,0c-0.6-0.3-1.3,0-2-0.2c-0.7,0-1.4,0-2.1-0.1c-0.7-0.2-1.4,0-2-0.2c-1.5-0.1-1.5-0.1-1.5,1.3c0,5.9,0,11.7,0,17.6
	c0,0.6,0,1.3,0.1,1.9c0.2,0.4-0.1,0.8,0.2,1.2c0.1,2.6,1.5,4.1,3.8,4.3c0.8,0.3,1.7,0,2.5,0.2c1.1,0,2.2,0,3.3,0.1
	c0.4,0.2,0.9,0,1.3,0.2c1.6,0.4,3.1,1,4.5,2c0.9,0.3,1,1,1.2,1.7c0.3,0.9,0.5,1.9,0.8,2.8c0.2,0.4,0,0.9,0.2,1.3
	c0,0.6,0,1.2,0.1,1.9c0.1,0.7,0.1,1.4,0,2.1c-0.1,0.8-0.2,1.6-0.2,2.4c0.3,0.6,0.5,1.2-0.2,1.6c-0.2,0.6-0.3,1.3-0.5,1.9
	c0.1,0.4-0.1,0.6-0.3,0.8c-0.9,2.4-2.9,3.3-5.1,4.1c-0.5,0.6-1.2,0.3-1.8,0.4c-0.2,0-0.4,0-0.6,0c-0.1,0.1-0.3,0.2-0.4,0.2
	c-2-0.3-4.1,0-6.1-0.2c-0.6,0-1.2,0-1.9-0.1c-0.5-0.2-1,0-1.5-0.2c-3.5-0.3-6.9-1.1-10.1-2.4c-1.1-0.5-2.3-0.9-3.3-1.7
	c-0.1,0-0.1,0-0.2,0c-1-0.3-1.7-1.1-2.5-1.6c-0.1-0.1-0.2-0.2-0.2-0.3c-1.4-1.4-2.7-2.9-3.8-4.6c-0.2-0.1-0.3-0.2-0.3-0.3
	c-0.2-0.4-0.3-0.8-0.5-1.1c-0.1-0.1-0.1-0.2-0.1-0.3c-0.1-0.3-0.3-0.6-0.4-0.8c-0.1-0.2-0.2-0.4-0.1-0.6c-1-2.3-1.5-4.7-1.9-7.2
	c-0.1-0.1-0.2-0.2-0.2-0.3c-0.3-0.6,0.1-1.1,0-1.7c0-0.4,0-0.8-0.1-1.1C136.5,76.5,136.7,75.8,136.5,75.3z"/>
<path class="st1" d="M-11.8,37.5c0,0.2-0.1,0.3-0.1,0.5c0.1,1-0.1,1.8-0.8,2.4c-0.3,0.7-0.7,1.4-1,2.2c-0.2,0.5-0.2,1.1-0.8,1.4
	c-0.8,1-1.6,2.1-2.3,3.1c-0.2,0.8-0.8,1-1.5,1.3c-2.3,1.5-4.6,1-6.9,0c-2.9-1.3-5.9-2.7-9.1-2.9c-0.4,0-0.7-0.4-1.1-0.2
	c-1.6-0.2-3.2-0.2-4.8,0c-1.6-0.1-3,0.3-4.4,1c-0.6,0.3-1,0.7-1,1.3c-0.2,0.4-0.2,0.8,0,1.3c-0.1,1.1,0.8,1.7,1.5,2.2
	c0.9,0.6,1.9,1.2,3.1,1.3c0.6-0.3,1,0.2,1.4,0.4c0.2,0,0.3,0.1,0.5,0.1c0.4-0.1,0.9-0.2,1.2,0.3c1.6,0.3,3.2,0.5,4.8,0.7
	c0.4-0.1,0.9-0.3,1.2,0.3c1,0.2,1.9,0.6,2.9,0.6c0.6-0.2,1,0.2,1.4,0.4c2.5,0.9,5.1,1.8,7.6,2.7c0.6,0.1,1.1,0.2,1.5,0.7
	c1.9,0.9,3.5,2.3,5,3.8c0.8,0.5,1.4,1.2,1.6,2.2c1.7,2.9,2.7,6,3.2,9.3c0.2,0.4,0,0.9,0.2,1.3c0,1.7,0,3.4,0,5.1
	c-0.2,0.5,0,1-0.2,1.5c-0.1,0.8-0.3,1.6-0.4,2.4c0.3,0.6,0.1,1-0.3,1.5c-1.2,4.2-3.2,8-6.8,10.6c-2.7,2-5.7,3.2-8.8,4.2
	c-2.8,0.9-5.6,1.4-8.5,1.7c-0.4,0.2-0.9,0-1.3,0.2c-0.5,0-1.1,0-1.6,0.1c-1.1,0.2-2.2-0.1-3.2,0.2c-0.7-0.1-1.5-0.1-2.2,0
	c-1-0.3-2,0-2.9-0.2c-4.5-0.2-8.8-1.2-13.1-2.7c-3.8-1.4-7.5-3.1-10.8-5.5c-1.3-0.9-1.9-2.2-2-3.7c-0.3-3.1,1-5.7,2.5-8.2
	c0.4-0.7,0.9-1.5,1.3-2.2c-0.1-0.7,0.5-0.9,0.9-1.2c0.8-1.8,2.2-2.9,4.2-3.2c1-0.1,1.9-0.1,2.9,0c0.5,0.2,0.9,0.4,1.4,0.3
	c1.2-0.1,2.2,0.4,3.1,1.2c0.3,0.3,0.6,0.5,1,0.4c0.5,0.2,1.1,0.2,1.4,0.8c0.2,0.2,0.5,0.4,0.8,0.4c0.5,0.1,1.1,0.2,1.4,0.8
	c0.1,0.2,0.3,0.2,0.5,0.2c0.5,0.2,1.1,0.2,1.5,0.7c3.3,1.6,6.7,2.3,10.3,1.8c0.4-0.2,0.9,0,1.3-0.2c0.2,0,0.4,0,0.6-0.1
	c0.6-0.1,1-0.6,1.7-0.4c0.5-0.3,1.1-0.5,1.5-0.9c0.9-0.8,1.2-1.7,0.3-2.7c-0.8-0.5-1.7-0.8-2.4-1.4c-2.3-0.7-4.6-1.2-6.9-1.5
	c-0.5-0.1-1.1,0.3-1.5-0.2c-2.9-0.6-5.8-1.4-8.5-2.7c-0.6-0.1-1.2-0.2-1.5-0.7c-2.5-1.1-4.8-2.3-7-3.9c-0.6-0.3-1.1-0.5-1.4-1.2
	c-1-0.8-1.6-1.9-2.4-2.9c-0.3-0.5-0.9-0.8-0.9-1.5c-0.1-0.1-0.2-0.3-0.3-0.4c-0.6-0.5-0.8-1.2-0.9-2c-0.2-0.5-0.4-1-0.6-1.4
	c-0.5-0.3-0.6-0.7-0.4-1.2c-0.9-2.3-1.1-4.8-1.2-7.2c-0.2-1.5,0.1-3-0.2-4.4c-0.1-0.3,0-0.6,0.2-0.8c0.1-0.3,0.2-0.6,0-1
	c-0.3-0.5,0-0.8,0.3-1.2c1.2-6,4.3-10.6,9.8-13.4c4.3-2.2,9-3.1,13.7-3.7c0.5-0.2,1,0.1,1.5-0.2c0.6,0,1.2,0,1.9-0.1
	c2-0.1,4-0.1,6,0c6.5,0.6,12.7,2.2,18.7,5.1c2.1,1,3.7,2.5,4.4,4.8C-11.7,36-11.7,36.7-11.8,37.5z"/>
<path class="st1" d="M-248.7,84.4c-2-5.4-5.7-9.3-10.6-12.2c-1.5-0.9-3.1-0.9-4.8-0.3c-1.9,0.7-3.6,1.6-5.2,2.7
	c-5.5,3.6-12.7,2.5-17-2.4c-5.5-6.3-2.9-16.5,5.1-19.9c4-1.7,8-1.6,11.7,0.8c1.3,0.8,2.6,1.7,4,2.4c4.2,2,6.9,1.6,10.2-1.6
	c2.5-2.5,4.5-5.3,5.9-8.5c1.5-3.4,1.6-6.7-1.3-9.5c-2.8-2.8-6.1-4.9-9.7-6.5c-3.7-1.7-7.6-2.6-11.6-3.2c-0.4-0.2-0.9,0-1.3-0.2
	c-1.9,0-3.7,0-5.6,0c-0.4,0.2-0.9,0-1.3,0.2c-0.9,0.1-1.7,0.3-2.6,0.4c-6.5,1.2-12.4,4-17.7,7.8c-4.6,3.3-7.8,7.7-10.3,12.7
	c-2,4-3.3,8.2-3.5,12.7c-0.2,0.7,0.1,1.4-0.2,2c0,1.3,0,2.6,0,3.9c0.3,0.7,0,1.5,0.2,2.3c0.2,0.8,0.2,1.6,0.3,2.4
	c0.5,3.8,1.7,7.3,3.4,10.7c2.4,4.8,5.6,8.9,10,12.1c6.1,4.5,12.7,7.6,20.2,8.6c0.4,0.2,0.9,0,1.2,0.2c0.5,0,0.9,0,1.4,0.1
	c0,0,0,0,0.1,0c0.1,0,0.2,0,0.3,0c0,0,0.1,0,0.1,0c0.1,0,0.3-0.1,0.4-0.1c0.2,0,0.5,0.1,0.6,0.1c0.1,0,0.2,0,0.3,0
	c0.1,0,0.3,0,0.4,0.1c0,0,0,0,0.1,0c0.1,0,0.3-0.1,0.4-0.1c0.1,0,0.2,0,0.2,0c0.3,0,0.6,0,0.8,0c0.6,0,1.2,0,1.8-0.1
	c0.4-0.2,0.9,0,1.3-0.2c1.1-0.2,2.2-0.3,3.4-0.5c1,0.2,1.9,0,2.6-0.7c1.7-0.7,3.4-1.3,5-2c0.4-0.2,0.9-0.2,1.2-0.7
	c0.3-0.2,0.6-0.4,1-0.5c0.9-0.2,1.6-0.7,2.2-1.4c0.3-0.2,0.5-0.5,0.9-0.6c1.1-0.3,1.8-1.1,2.5-1.9c1.6-1.6,3-3.4,3.7-5.7
	c0,0,0-0.1,0-0.1c0-0.2,0-0.4,0.1-0.6c0-0.2,0-0.4,0.1-0.6C-248.6,85.9-248.4,85.1-248.7,84.4z"/>
<path class="st1" d="M124.9,86.3c0,1.9,0,3.7,0,5.6c-0.3,0.7,0.4,1.4,0,2.2c-0.1,0.1-0.2,0.2-0.3,0.3c-0.3,0.5-0.1,1-0.2,1.4
	c0,0.1,0,0.1,0,0.2c0.1,0.5-0.1,0.9-0.4,1.3c-0.7,1.8-2.1,3-3.8,3.8c-0.6,0.3-1.2,0.1-1.7,0.3c-2.1,0.1-4.2,0.1-6.2,0
	c-1.1,0-2.2,0-3.3-0.1c-0.6-0.2-1.2,0-1.8-0.2c-0.5,0-0.9,0-1.4-0.1c-0.4-0.2-0.9,0-1.3-0.2c-2.4-0.1-4.6-1-7-1.4
	c-0.2,0.1-0.4,0-0.6-0.1c-0.3-0.2-0.6-0.3-0.8-0.4c-0.1-0.1-0.2-0.1-0.2-0.2c-2-0.9-3.7-2.1-5-3.9c-0.1,0-0.2-0.1-0.2-0.2
	c-0.2-0.3-0.4-0.6-0.6-0.9c-0.1-0.1-0.1-0.3-0.1-0.4c-0.8-2-1.7-4-2.1-6.1c-0.5-2.2-0.9-4.5-1.1-6.7c-0.2-0.5,0.1-1-0.2-1.5
	c0-0.6,0-1.2-0.1-1.9c-0.2-1.5,0.1-2.9-0.2-4.4c0-0.4,0.1-0.7,0.1-1.1c0-22.4,0-44.9,0-67.3c0-0.4,0-0.7-0.1-1.1
	c0.3-1.1,0-2.1,0.2-3.2c0-1.5,0.6-2.9,1-4.3c0.1-0.6,0.3-1.2,1-1.4c1.9-1.9,4.5-2.1,7-2.5c0.7-0.2,1.3,0.1,2-0.2c1,0,2,0,2.9,0
	c0.6,0.2,1.2,0,1.8,0.2c1.7,0.3,3.4,0.5,5,1.4c2.5,1.4,3.4,3.9,3.9,6.6c0.2,0.7-0.1,1.5,0.2,2.3c0,1,0,2,0,3c0,21.5,0,43.1,0,64.6
	c0,1,0.1,1.9,0.1,2.9c0.2,0.5-0.1,1,0.2,1.5c0,0.3,0,0.6,0.1,0.9c0.7,0.4,0.6,1.2,0.9,1.7c0.5,0.5,1.1,0.7,1.9,0.7
	c0.4,0.2,0.9,0,1.3,0.2c1.5,0.1,3,0.1,4.5,0.4c0.8-0.1,1.3,0.2,1.7,0.9c1.1,0.7,1.8,1.7,2.2,2.8c0.1,0.1,0.3,0.1,0.3,0.3
	c0.1,0.3,0.2,0.6,0.2,0.9c0,0.1,0,0.2-0.1,0.3c-0.1,0.7,0.2,1.3,0.3,1.9C124.9,85.4,124.7,85.9,124.9,86.3z"/>
<path class="st0" d="M303,30.8c1.3-0.7,2.7-1.4,3.9-2.2c2.3-1.4,4.9-2,7.6-2.4c1.3-0.1,2.6-0.1,3.8,0c1.8,0.3,3.7,0.6,5.5,1
	c0.7-0.3,1.2,0,1.7,0.5c1.6,0.6,3,1.5,4.3,2.7c0.6,0.2,0.8,0.7,0.9,1.2c0.1,0.1,0.1,0.3,0.2,0.4c0.7,0.5,0.8,1.1,0.6,1.9
	c0.1,1.1,0.1,2.2,0.2,3.3c-0.2,0.6,0,1.2-0.2,1.8c-0.6,2.9-1.3,5.8-2.7,8.5c-1.4,2.6-3.4,4.5-6.4,5c-0.8,0.1-1.6,0.1-2.4,0
	c-2.2,0-4-1.4-6.2-1.8c-1.1-0.2-2.1-0.5-3.2-0.3c-0.5,0.2-1-0.1-1.5,0.2c-3.8,0.3-8.2,3-9.2,6.9c-0.2,0.7-0.2,1.4-0.2,2.1
	c0,10,0,20.1,0,30.1c0,0.2,0,0.3,0.1,0.5c-0.3,1.1,0,2.1-0.2,3.2c-0.4,2.3-1,4.4-2.9,6.1c-1,0.9-2.2,1.4-3.4,1.6
	c-1.3,0.3-2.5,0.5-3.8,0.5c-1.4,0.2-2.8-0.2-4.2,0.3c-0.4,0-0.8,0-1.1-0.3c-1.1,0-2.2-0.4-3.4-0.5c-1.3,0-2.4-0.6-3.4-1.5
	c-0.7-0.7-1.2-1.5-1.7-2.4c-0.7-0.4-0.6-1.1-0.7-1.7c-0.1-1-0.2-1.9-0.3-2.9c-0.1-0.5-0.1-1-0.1-1.4c0-17.6,0-35.2,0-52.8
	c0-0.6,0-1.2-0.2-1.8c-0.1-0.4,0-0.8,0.3-1.1c0-2.3,1.1-4.3,2.2-6.2c0.5-0.8,1.2-1.2,2.1-1.3c1.7-0.5,3.3-0.8,5-1
	c1.9-0.1,3.8-0.1,5.7,0c1.1,0.2,2.2,0.3,3.4,0.5c1-0.2,1.7,0.2,2.4,0.8c2,1,2.9,2.8,3.6,4.7c0.1,0.1,0.2,0.2,0.2,0.4
	c0,0.4,0,0.4,0.2,0.4c0.2-0.3,0.4-0.7,0.8-0.8c0.4-0.4,0.8-0.8,1.2-1.2C302.1,31.2,302.5,30.9,303,30.8z"/>
<path class="st2" d="M62.8-111.5c0.5,0.1,1,0.2,1.5,0.4c0.5-0.2,0.9,0.2,1.2,0.5c0.2,0.1,0.5,0.2,0.7,0.4c1.6,0.6,3,1.4,3.6,3
	c0.9,1.1,1.7,2.4,2.2,3.8c0.6,0.4,0.7,1,0.5,1.7c0.1,0.6,0.2,1.1,0.2,1.7c0.1,0.4,0.1,0.9,0.1,1.3c0,7.2,0,14.4,0,21.6
	c0,0.4,0.1,0.9-0.1,1.3c-0.1,0.4-0.2,0.8-0.2,1.2c0.3,0.5,0.3,0.9-0.2,1.2c0,0.2,0,0.3,0,0.5c0.2,0.5-0.1,0.7-0.4,1
	c-0.5,1.1-1.1,2.2-1.9,3.1c-0.7,0.1-0.9-0.4-1.2-0.8C58.7-83,48.8-96.4,38.9-109.7c-0.1-0.1-0.1-0.2-0.2-0.3
	c-0.3-0.4-0.7-0.9-0.5-1.4c0.3-0.5,0.9-0.3,1.3-0.3c6.8,0,13.6,0,20.4,0c0.4,0,0.8-0.1,1.2,0.1c0.2,0,0.3,0,0.5,0
	C62-111.9,62.4-112,62.8-111.5z"/>
<path class="st2" d="M30.9-146.1c0.1,0.1,0.1,0.2,0.2,0.2c0.5,0.3,0.6,0.7,0.8,1.2c0.7,1.6,1.5,3.2,1.4,5.1c0.2,0.3,0.1,0.7,0.1,1
	c0,6.3,0,12.6,0,18.9c0,0.4,0.3,1-0.3,1.2c-0.6,0.2-0.8-0.4-1.1-0.7c-3-4-6-8.1-9-12.1c-4.4-6-8.9-12-13.3-18.1
	c-0.3-0.4-0.8-0.8-0.5-1.5c4.1,0,8.3-0.1,12.4,0c2.6,0.1,4.9,1.1,7,2.6C29.7-147.9,30.5-147.2,30.9-146.1z"/>
<path class="st3" d="M35.5-36.7c-0.3,3.3-1.4,6.2-3.6,8.7c-1-0.3-0.8-1.1-0.9-1.8c-0.1-1.9,0.1-3.8,0-5.7c0-9.4,0-18.9,0-28.3
	c0-0.2,0-0.3,0-0.5c0-1.2,0-2.4,0-3.6c-0.1-2.6,0-5.2,0-7.8c0-1.8-0.1-3.5,0-5.3c-0.1-2.6,0-5.1,0-7.7c0-2.9-0.1-5.9,0-8.8
	c-0.1-3.4,0-6.8,0-10.2c0-0.4,0-0.9-0.1-1.3c-0.2-0.7-1.1-0.3-1.4-0.9c-0.3-1.2-0.4-2.5,0.1-3.7c0.7-0.5,1.6-0.3,2.4-0.3
	c0.5,0,1.1-0.1,1.5,0.3c0.7,0.1,1.3,0.4,1.8,1c0.4,0.3,0.5,0.7,0.5,1.1c0,0.8,0,1.6,0,2.4c0,2.2,0.1,4.4,0,6.6c0,1.9,0,3.8,0,5.8
	c0.1,2.3,0,4.6,0,7c0,2.6,0,5.3,0,7.9c0,3.1,0,6.2,0,9.4c0,2.8,0.2,5.6-0.1,8.4c-0.2,0.5-0.1,0.9-0.1,1.4c0,8.3,0,16.6,0,24.8
	C35.5-37.6,35.6-37.1,35.5-36.7z"/>
<path class="st2" d="M-98.5,152.9c-0.2-0.3-0.4-0.5-0.3-1.1c0.7-3.4,1.2-6.9,1.8-10.3c0.4-2.5,1-5,1.4-7.4c0.4-2.1,0.5-4.2,1.2-6.2
	c0.5-0.1,1-0.2,1.4,0c1.3,2.8,2.7,5.6,4,8.4c1.2,2.5,2.3,5.1,3.5,7.6c0.1,0.2,0.1,0.5,0.4,0.5c0.2,0,0.3-0.2,0.4-0.4
	c1.6-3.5,3.2-7,4.9-10.5c0.9-1.9,1.6-3.9,2.8-5.7c0.5-0.1,1-0.2,1.4,0.1c0.4,2.1,0.8,4.3,1.2,6.4c0.7,3.9,1.4,7.8,2,11.7
	c0.3,1.9,0.7,3.9,1.1,5.8c0.1,0.4,0,0.7-0.2,1c-1.3,0.3-2.5,0.2-3.8,0.1c-1.1-0.5-0.8-1.7-0.9-2.5c-0.3-2.3-0.8-4.6-1.1-7
	c-0.1-1-0.3-2-0.4-3c0-0.3-0.1-0.6-0.4-0.7c-0.5-0.1-0.5,0.4-0.6,0.6c-1.9,4.2-3.8,8.5-5.6,12.7c-0.5,0.3-1.1,0.2-1.7,0.1
	c-2.1-4.5-4.2-9.1-6.4-13.8c-0.5,1.6-0.6,3-0.8,4.5c-0.5,2.7-0.8,5.5-1.2,8.2c-0.1,0.4-0.2,0.7-0.5,0.9
	C-95.9,153.1-97.2,153.1-98.5,152.9z"/>
<path class="st2" d="M-12.3,153.2c-2.1-2.3-4.2-4.6-6.3-6.9c-1.1-1.2-2.1-2.4-3.3-3.6c-1.6-1.7-3.1-3.4-4.7-5.2
	c-0.6,0.2-0.3,0.8-0.3,1.1c0,4.3,0,8.5,0,12.8c0,0.4,0.1,0.8-0.1,1.2c-0.1,0.1-0.2,0.1-0.2,0.2c-1.3,0.3-2.5,0.2-3.8,0.1
	c-0.4-0.3-0.4-0.7-0.4-1.2c0-7.6,0-15.3,0-22.9c0-0.4-0.2-0.8,0.4-0.9c0.4-0.1,0.8-0.1,1.2,0c3.8,4,7.5,8,11.3,12
	c0.8,0.9,1.7,1.8,2.5,2.7c0.2,0.2,0.3,0.5,0.7,0.4c0.3-0.1,0.2-0.5,0.2-0.7c0-4.1,0-8.2,0-12.2c0-2.1-0.1-1.8,1.9-1.8
	c0.9,0,1.8-0.2,2.6,0.2c0.3,0.3,0.2,0.6,0.2,0.9c0,7.6,0,15.3,0,22.9c0,0.3,0.1,0.6-0.2,0.9l0,0C-11.2,153.4-11.8,153.2-12.3,153.2z
	"/>
<path class="st2" d="M-161.8,152.9c-0.1,0-0.1,0.1-0.1,0.2c-0.5,0.4-1.1,0.1-1.6,0.1c-2.1-2.3-4.3-4.6-6.3-7c-0.9-1.1-1.9-2-2.8-3
	c-1.7-1.8-3.4-3.7-5.1-5.6c-0.6,0.3-0.3,0.8-0.3,1.1c0,4.3,0,8.5,0,12.8c0,0.4,0.1,0.8-0.1,1.2c-0.1,0.1-0.1,0.1-0.2,0.2
	c-1.3,0.3-2.5,0.2-3.8,0.1c-0.6-0.1-0.4-0.6-0.4-0.9c0-7.7,0-15.3,0-23c0-0.4-0.1-0.9,0.4-1.1c0.4-0.1,0.8-0.1,1.2,0
	c1.4,1.6,2.8,3.1,4.3,4.7c3.2,3.4,6.4,6.7,9.6,10.1c0.2,0.2,0.3,0.5,0.7,0.4c0.2-0.3,0.1-0.8,0.1-1.1c0-3.6,0-7.1,0-10.7
	c0-3.5-0.5-3,3.1-3c0.5,0,1.1-0.1,1.5,0.5c0.1,0.4,0.1,0.9,0.1,1.3c0,7.2,0,14.4,0,21.6C-161.7,152-161.7,152.5-161.8,152.9z"/>
<path class="st2" d="M183.5,151.9c-0.2,0-0.4,0-0.4,0.2c-0.3,0.2-0.5,0.5-1,0.5c-0.6,0.2-1.1,0.3-1.7,0.5c-1.4,0.2-2.7,0.1-4.1,0
	c-1.7-0.3-3.4-0.8-4.7-2.2c-0.4-0.2-0.8-0.3-0.8-0.8c-0.2-0.2-0.4-0.4-0.6-0.6c-0.4-0.2-0.5-0.7-0.7-1c-0.9-1.4-1.2-2.9-1.3-4.5
	c-0.1-5.1-0.2-10.2,0-15.3c0.4-0.7,1-0.4,1.6-0.4c3.5,0,3.1-0.5,3.1,3.1c0,4,0,8,0,12c0,2.8,1.2,4.4,3.4,5.1c0.3,0.2,0.7-0.1,1,0.2
	c2.9,0.6,5.7-1.8,5.8-5.4c0.1-4.5,0-9,0-13.5c0-1,0.2-1.5,1.4-1.4c3.9,0.1,3.4-0.4,3.4,3.4c0,3.3-0.1,6.6,0,10
	c0.2,3.8-0.7,7.1-3.6,9.7C184.3,151.7,183.8,151.7,183.5,151.9z"/>
<path class="st2" d="M-210.1,152.9c-0.4-0.3-0.4-0.7-0.4-1.2c0-7.5,0-14.9,0-22.4c0-0.8,0.2-1.2,1.1-1.2c4.4,0.1,8.9,0,13.3,0
	c1,0,1.4,0.3,1.4,1.3c0,3,0,3-3,3c-2.4,0-4.8,0-7.2,0c-0.8,0-1,0.2-1,1c0.1,1.5,0.1,3,0.1,4.5c1.8,0.3,3.6,0,5.4,0.1
	c1.1,0,2.1-0.1,3.2,0.1c0.7,0.6,1,3.3,0.5,4c-0.3,0.4-0.8,0.3-1.2,0.3c-2.4,0-4.7,0-7.1,0c-0.7,0-1,0.2-0.9,0.9
	c0.1,1.7-0.2,3.4,0.2,5.1c2.1,0.3,4.1,0,6.2,0.1c1.5,0.1,3-0.2,4.5,0.1c0.2,1.4,0.6,2.8-0.2,4.1
	C-200.2,153.1-205.1,153.1-210.1,152.9z"/>
<path class="st2" d="M-59.2,128.4c0.3-0.4,0.7-0.2,1.1-0.2c4.4,0,8.7,0,13.1,0c1.1,0,1.5,0.4,1.5,1.5c-0.1,3.1,0.4,2.8-2.7,2.8
	c-2.5,0-4.9,0-7.4,0c-0.8,0-1,0.3-1,1c0.1,1.5,0.1,3,0.1,4.5c1.8,0.3,3.6,0,5.4,0.1c1.1,0.1,2.3-0.1,3.4,0.1
	c0.9,1.1,0.4,2.4,0.4,3.7c0,0.6-0.7,0.6-1.2,0.6c-2.4,0-4.8,0-7.2,0c-0.8,0-1,0.2-0.9,0.9c0.1,1.7-0.2,3.4,0.1,5.1c2,0.3,4,0,6,0.1
	c1.6,0.1,3.2-0.2,4.8,0.1c0.3,1.4,0.7,2.8-0.2,4.1c-5,0.1-9.9,0.2-14.9,0c-0.1-0.1-0.2-0.2-0.3-0.3c-0.1-0.4-0.1-0.9-0.1-1.3
	c0-7.2,0-14.4,0-21.6C-59.2,129.3-59.3,128.9-59.2,128.4z"/>
<path class="st2" d="M-244.4,151.6c-0.5-1-0.9-2-1.4-3c-1.6-3.7-3.3-7.3-4.9-11c0.1-0.8-0.5-1.3-0.9-1.9c-0.3-0.3-0.5-0.7-0.5-1.2
	c-0.1-0.6-0.2-1.1-0.7-1.5c-0.3-0.3-0.5-0.7-0.5-1.2c0.1-0.8-0.5-1.3-0.9-1.9c-0.3-0.6-0.7-1.3-1-1.9c-0.4-0.3-0.8-0.2-1.2-0.1
	c-0.7,0.9-0.9,2-1.5,2.9c-0.4,0.6-1,1.1-0.9,1.9c-0.2,0.4-0.4,0.8-0.5,1.2c-0.4,0.6-1,1.1-0.9,1.9c-0.2,0.4-0.4,0.8-0.5,1.2
	c-0.4,0.6-1,1.1-0.9,1.9l-0.5,1.2c-0.4,0.6-1,1.1-0.9,1.9c-0.2,0.4-0.4,0.8-0.5,1.2c-0.3,0.6-1.1,1-0.9,1.9
	c-0.1,0.2-0.1,0.5-0.2,0.7c-0.9,1.9-1.7,3.7-2.6,5.6c-0.2,0.5-0.7,1.1,0.2,1.5c1.2,0.1,2.4,0.1,3.6,0c0.5-0.3,0.7-0.7,0.9-1.2
	c0.6-1,0.8-2.2,1.5-3.2c1.3-0.3,2.7-0.1,4-0.1c2.1,0,4.3-0.2,6.4,0.1c0.5,1.1,1.2,2.1,1.5,3.3c0.1,0.5,0.3,1,0.9,1
	c1.3,0.1,2.6,0.2,3.8-0.1C-244.1,152.4-244.2,152-244.4,151.6z M-253.4,144.2c-0.1,0-0.1,0-0.1,0c-0.1,0-0.2,0.1-0.3,0.1
	c-0.7,0-1.7,0.1-2.5-0.1c0,0,0,0,0,0c0,0-0.1,0-0.1,0c-0.1,0.1-0.2,0.1-0.3,0.1c-0.1,0-0.3,0-0.4,0c-0.5,0-0.9,0.1-1.4-0.1
	c-0.3-0.1-0.3-0.5-0.2-0.7c0.3-0.6,0.5-1.3,1-1.8c0,0,0,0,0,0c-0.1-0.6,0.4-1.1,0.6-1.7c0.1-0.1,0.1-0.2,0.2-0.2c0,0,0,0,0,0
	c0.1-0.3,0.2-0.5,0.4-0.8c0.1-0.1,0.1-0.2,0.2-0.2c0-0.1,0-0.2,0-0.3c-0.2-0.6,0.8-0.9,1-0.3c0,0.1,0,0.2,0.1,0.3c0,0,0,0,0.1,0.1
	c0.3,0.6,0.7,1.1,0.9,1.7c0.2,0.4,0.3,0.9,0.4,1.4c0.1,0.2,0.2,0.4,0.3,0.6c0,0,0,0.1,0,0.1c0,0,0,0,0,0c0,0,0,0.1,0.1,0.1
	c0,0.1,0,0.1,0,0.2c0.2,0.1,0.2,0.3,0.2,0.5c0.1,0.1,0.2,0.2,0.2,0.3C-252.8,143.5-252.9,144.2-253.4,144.2z"/>
<path class="st4" d="M-11.1-146.4c0.9-1.7,2.5-2.6,4.1-3.4c0.1-0.1,0.2-0.1,0.3,0c0.1,0.6,0.4,1.1,0.8,1.6c8,10.8,16,21.6,23.9,32.4
	c0.3,0.4,0.7,0.8,0.8,1.3c0.2,0.4,0.3,0.8-0.3,1c-1.7,0.2-3.3,0.1-5,0.1c-0.3,0-0.7,0-1-0.1c-1.2-1.6-2.4-3.2-3.6-4.8
	c-6.5-8.9-13.1-17.7-19.6-26.6C-10.9-145.3-11.5-145.7-11.1-146.4z"/>
<path class="st5" d="M-46.9-63.4c-4.6-2.2-7.2-5.9-8.4-10.8c-0.1-0.4,0-0.8,0-1.2c0-8.5-0.1-16.9,0.1-25.4c0.1-4,2.2-7.2,5.2-9.8
	c0.9-0.8,1.9-1.6,3.1-1.8c0.4,0.4,0.3,1,0.4,1.5c0,0.9,0,1.7,0.2,2.6c0,0.6-0.5,0.8-0.8,1.1c-2.6,2.3-3.8,5.1-3.8,8.6
	c0.1,7.2,0.1,14.4,0,21.6c0,3.2,1.2,5.7,3.4,7.9c0.3,0.3,0.8,0.6,0.9,1.1C-46.6-66.5-46.4-64.9-46.9-63.4z"/>
<path class="st6" d="M35.5-102.7c0-2.2,0-4.5,0-6.7c0.7,0.1,1,0.7,1.3,1.1C44-98.5,51.2-88.7,58.4-79c2.7,3.7,5.5,7.4,8.2,11.1
	c0.3,0.4,0.9,0.8,0.5,1.4c-0.8,0.7-1.7,1.1-2.6,1.4c-0.9,0.4-1.1-0.3-1.5-0.8c-2.1-2.8-4.2-5.6-6.3-8.5C51.8-80.8,47-87.4,42.2-94
	c-1.7-2.3-3.5-4.6-5.1-7C36.6-101.6,36.1-102.2,35.5-102.7z"/>
<path class="st7" d="M67.1-66.4c-1-1.9-2.4-3.5-3.6-5.1c-4.9-6.6-9.8-13.2-14.7-19.9c-4.1-5.6-8.3-11.2-12.4-16.8
	c-0.3-0.4-0.7-0.8-1-1.2c0-0.8,0-1.6,0-2.4c0.3-0.3,0.6-0.3,0.9-0.1c4.9,0,9.8,0,14.7,0.1c2.9,0,5.7,0,8.6,0c0.5,0,1-0.1,1.4,0.2
	c-7.2,0-14.4,0-21.6,0c-0.3,0-0.8-0.2-1,0.1c-0.2,0.4,0.2,0.7,0.4,1c3.4,4.6,6.8,9.1,10.1,13.7c5.2,7.1,10.5,14.2,15.7,21.3
	c1.4,1.9,2.8,3.9,4.3,5.8c0.2,0.3,0.5,0.5,0.8,0.7C69-68,68.3-67,67.1-66.4z"/>
<path class="st8" d="M-11.1-146.4c0.9,1.9,2.4,3.5,3.6,5.1c4.8,6.6,9.8,13.3,14.7,19.9c1.5,2,3.1,4.1,4.6,6.1
	c0.3,0.4,0.8,0.8,0.7,1.5c-0.2,0.3-0.6,0.4-1,0.4c-1.5,0-2.9,0.1-4.4-0.1c-0.3-0.1-0.5-0.3-0.7-0.6c-5.4-7.5-11-14.9-16.5-22.4
	c-1-1.3-1.9-2.8-3-4c-0.4-0.5-0.5-1-0.5-1.6c0.2-1,0.7-1.8,1.2-2.6c0-0.6,0.4-0.9,0.8-1.2C-11.5-146.1-11.5-146.4-11.1-146.4z"/>
<path class="st9" d="M18.9-113.8c-1.9-3.1-4.1-5.8-6.2-8.7c-4.9-6.6-9.8-13.2-14.6-19.8c-1.5-2-3-4-4.5-6c-0.3-0.4-0.7-0.8-0.3-1.4
	c0.1-0.4,0.5-0.3,0.8-0.5c1.2-0.3,2.5-0.7,3.8-0.7c0,0.3-0.2,0.3-0.4,0.4c0,0.1-0.5-0.3-0.1,0.2c3.9,5.3,7.9,10.6,11.8,16
	c4.7,6.3,9.3,12.6,14,19c0.4,0.5,1.2,1,0.4,1.8c-0.5,0.2-1.1,0.1-1.6,0.1C20.9-113.5,19.8-113.1,18.9-113.8z"/>
<path class="st2" d="M6.6,152.9c-0.7-0.2-0.4-0.8-0.4-1.2c0-6,0-12.1,0-18.1c0-0.9-0.2-1.2-1.2-1.2c-1.3,0.1-2.6,0-3.8,0
	c-0.4,0-0.9,0.2-1.1-0.5c-0.2-1-0.1-2.1,0-3.1c0.1-0.6,0.5-0.7,1-0.7c4.8,0,9.7,0,14.5,0c1,0,1.3,0.3,1.3,1.3c0,3.7,0.2,2.9-2.9,3
	c-1,0-2.4-0.4-3,0.2c-0.6,0.6-0.2,2-0.2,3c0,5.2,0,10.5,0,15.7c0,0.6,0,1.1-0.4,1.6C9.2,153.1,7.9,153.1,6.6,152.9z"/>
<path class="st6" d="M32.1-113.8c-0.8,0-1.6,0.1-2.4,0.1c-0.5,0.4-1.1,0.3-1.7,0.2c-0.4-0.1-0.6-0.5-0.9-0.8c-7-9.5-14-19-21.1-28.5
	c-1.6-2.2-3.3-4.3-4.8-6.6c-0.3-0.4-0.8-0.8-0.6-1.5c1.5,0,3,0,4.6,0c1.1,1,1.8,2.2,2.7,3.4c7.6,10.3,15.2,20.7,22.9,31
	c0.4,0.5,0.8,1.1,1.2,1.7C32.2-114.5,32.4-114.2,32.1-113.8z"/>
<path class="st2" d="M-221.2,129.3c0-0.8-0.4-1.1-1.2-1.1c-4.9,0-9.8,0-14.7,0c-0.4,0-0.8-0.1-0.9,0.5c0,0.4-0.1,0.8-0.1,1.1
	c0.1,0.3,0.1,0.7,0,1c0,0.4,0,0.8,0.1,1.2c0.1,0.6,0.6,0.5,0.9,0.5c1.3,0,2.6,0.1,4,0c0.9,0,1.2,0.2,1.2,1.2c-0.1,6,0,11.9,0,17.9
	c0,0.5-0.3,1.1,0.5,1.4c0.5,0,1,0.1,1.4,0.1c0.2-0.1,0.4-0.1,0.6-0.1c0.2,0,0.4,0,0.6,0.1c0.4,0,0.8-0.1,1.2-0.1l0.2-0.2
	c0-0.1,0.1-0.1,0.1-0.2c0-0.1,0-0.3,0.1-0.4c0-0.1,0-0.1,0-0.2c0-0.1,0-0.1,0-0.2c0-0.1,0-0.2,0-0.3c0-5.8,0-11.7,0-17.5
	c0-0.4-0.1-0.9,0.1-1.3c1-0.2,2-0.1,3-0.1C-220.8,132.5-221.2,132.8-221.2,129.3z"/>
<path class="st10" d="M-11.4-26.7c-2.4-2.1-3.9-4.7-4.5-7.8c-0.3-1.2-0.3-2.4-0.3-3.7c0-8,0-16,0-24c-0.7-0.3-1.4,0-2.1-0.2
	c-0.1-0.1-0.2-0.1-0.3-0.3c-0.2-1.1-0.2-2.2,0-3.3c0.1-0.1,0.1-0.2,0.3-0.3c1.3-0.4,2.7,0,4-0.2c0.1,0,0.3-0.1,0.4-0.1
	c1.5,0.4,1.9,0.9,2.1,2.7c0.1,7.4,0,14.9,0,22.3c0,3,0,6.1,1,9c-0.2,1.4-0.4,2.8-0.3,4.3C-11-27.7-10.9-27.1-11.4-26.7z"/>
<path class="st11" d="M35.5-102.7c1.1-0.1,1.3,1,1.8,1.6c4.9,6.6,9.8,13.3,14.7,19.9c3.7,5,7.4,10.1,11.1,15.1
	c0.4,0.5,0.6,1.2,1.4,1.1c-0.8,0.4-1.7,0.7-2.7,0.8c-0.6,0.1-1.1,0-1.7,0.1c-0.3,0-0.5-0.3-0.6-0.5c-7.7-10.4-15.4-20.8-23-31.2
	c-0.3-0.4-0.7-0.7-1-1C35.5-98.9,35.5-100.8,35.5-102.7z"/>
<path class="st2" d="M201.5,152.9c-0.1-0.1-0.2-0.2-0.3-0.3c-0.1-2.2,0-4.3-0.1-6.5c0-5.5,0-11,0-16.4c0-0.4-0.1-0.9,0.1-1.3
	c1.3-0.5,2.6-0.2,3.9-0.2c0.8,0,0.7,0.8,0.7,1.4c0,5.9,0,11.7,0,17.6c0,1.2,0.3,1.5,1.4,1.4c2.2-0.1,4.5,0,6.7,0
	c0.6,0,1.2,0,1.6,0.6c0.1,1,0.1,2.1,0,3.1c0,0.1-0.1,0.1-0.1,0.2c-0.1,0.3-0.3,0.4-0.6,0.4C210.4,152.9,205.9,153.1,201.5,152.9z"/>
<path class="st11" d="M0.6-150.9c2.1,3.4,4.6,6.5,7,9.7c4.8,6.6,9.8,13.2,14.6,19.8c1.9,2.5,3.8,5,5.5,7.6c-1.4,0.7-2.7,0.7-4.1,0
	c-1.1-2.1-2.7-3.8-4-5.7c-4.8-6.6-9.7-13.2-14.6-19.8c-2.6-3.5-5.1-7-7.7-10.5c-0.6-0.7-0.3-1,0.4-1.1
	C-1.3-150.9-0.3-150.9,0.6-150.9z"/>
<path class="st7" d="M32.1-113.8c-0.3-1.3-1.3-2.2-2-3.2c-7.2-9.7-14.4-19.4-21.6-29.2c-1.1-1.6-2.5-3-3.3-4.8c1.4,0,2.7,0,4.1,0
	c0.7,1.8,2,3.1,3.1,4.6c5.7,7.9,11.5,15.7,17.3,23.5c0.9,1.3,1.9,2.5,2.9,3.8c0.1,0.2,0.2,0.4,0.5,0.3c0.2-0.1,0.2-0.3,0.2-0.5
	c0-0.2,0-0.5,0-0.7c0-6.6,0-13.2,0-19.8c0.4,0.5,0.2,1.2,0.2,1.7c0,8,0,16.1,0,24.1C33-113.8,32.5-113.8,32.1-113.8z"/>
<path class="st12" d="M-114.8,152.9c-0.6-0.1-0.4-0.6-0.4-0.9c0-7.6,0-15.1,0-22.7c0-0.9,0.3-1.1,1.2-1.1c4,0.1,3.5-0.6,3.5,3.5
	c0,6.5,0,13,0,19.6c0,0.6,0.1,1.2-0.4,1.7C-112.3,153.1-113.5,153.1-114.8,152.9z"/>
<path class="st13" d="M-13.7-142c0.8,1.9,2.3,3.4,3.5,5.1c5.1,7,10.3,13.9,15.4,20.9c0.5,0.7,1.3,1.3,1.4,2.3
	c-0.1,0.1-0.2,0.2-0.3,0.3c-1.1,0.2-2.2,0.2-3.3,0c-0.4-0.1-0.6-0.5-0.8-0.8c-5.1-7.1-10.3-14-15.5-21.1c-0.3-0.4-0.8-0.6-0.9-1.3
	c0-1.1-0.1-2.2,0.1-3.3C-13.9-140.6-13.8-141.3-13.7-142z"/>
<path class="st14" d="M-46.9-63.4c-0.1-1.5-0.2-3,0.3-4.5c0.5-0.3,0.8,0,1.2,0.2c1.6,0.8,3.3,1.1,5.1,1.1c3.6,0,7.1,0,10.7,0
	c0.6,0,1.2-0.1,1.7,0.3c-0.2,0.8-0.8,0.6-1.3,0.6c-1.8,0.1-3.5,0-5.3,0c-0.5,0-1.1-0.2-1.3,0.5c-0.2,0.6-0.2,1.4,0.1,2
	c0.2,0.5,0.8,0.4,1.2,0.4c1.8,0,3.5,0,5.3,0c0.5,0,1.2-0.2,1.4,0.6c-4.9,0-9.9,0.1-14.8,0C-44.2-62.2-45.6-62.7-46.9-63.4z"/>
<path class="st14" d="M-46.4-108.2c-0.6-0.1-0.5-0.6-0.5-1c0-1.1,0-2.1,0-3.2c0.2-0.1,0.3-0.3,0.5-0.4c0.7-0.7,1.6-0.6,2.4-0.7
	c2.7-0.4,5.4-0.3,8.1-0.2c0.3,0.3,0.3,0.6,0.3,1c0,1.1,0,2.1,0.4,3.1c-0.6,0.4-1.2,0.3-1.8,0.3c-2.3,0.1-4.6-0.2-6.9,0.4
	C-44.7-108.7-45.4-108.1-46.4-108.2z"/>
<path class="st15" d="M-27.9-62.2c-0.7-0.4-1.5-0.2-2.2-0.2c-1.7,0-3.4,0-5.2,0c-0.8,0-1-0.3-1-1c0-2.6-0.1-2.5,2.5-2.6
	c2,0,4,0.3,5.9-0.2c0.2-0.3,0.6-0.4,1-0.4c2.7,0,5.3-0.1,8,0c0.2,0,0.4,0.1,0.6,0.2c0.2,0.1,0.2,0.2,0.1,0.4v0
	c-0.5,0.4-1,0.4-1.6,0.4c-2,0-3.9,0-5.9,0c-1.2,0-1.3,0.2-1.3,1.5c0,0.9,0.3,1.4,1.3,1.4c2,0,3.9,0,5.9,0c0.6,0,1.1,0,1.6,0.4v0
	c0.1,0,0.1,0.1,0.1,0.1s-0.1,0.1-0.1,0.1C-21.5-62.2-24.7-62.2-27.9-62.2z"/>
<path class="st16" d="M-11.4-26.7c0.1-1.9-0.3-3.9,0.5-5.7c0.6,0.1,0.8,0.6,1.1,1c1.3,1.8,3.1,2.9,5.1,3.7c0.4,0.1,1,0.1,0.9,0.8
	c-0.2,0.7-0.2,1.4-0.2,2.1c0,0.6-0.1,1.2-0.6,1.6C-7.1-23.6-9.4-24.8-11.4-26.7z"/>
<path class="st17" d="M31.3-35.5c0,1.9,0,3.8,0,5.7c0,0.6,0,1.3,0.5,1.8c-1.8,2.1-3.9,3.6-6.5,4.3c-0.6,0.3-0.7-0.2-0.7-0.6
	c-0.1-1.1-0.2-2.2,0.2-3.3c0.9-1.1,2.3-1.6,3.2-2.6c1.3-1.3,2.1-2.7,2.7-4.4C30.8-35,30.8-35.5,31.3-35.5z"/>
<path class="st18" d="M-35.1-109.7c-0.6-0.2-0.8-0.5-0.7-1.1c0.1-0.9,0-1.9,0-2.8c2.8,0,5.6,0,8.4,0c0.6,1.4,0.6,2.7,0,4.1
	c-0.4,0.3-0.9,0.3-1.4,0.3c-1.6,0-3.3,0-4.9,0C-34.2-109.3-34.8-109.2-35.1-109.7z"/>
<path class="st19" d="M-4.4-23.2c0.2-1,0.3-2,0.2-3c0-0.4,0-0.8,0.5-0.9c0.5-0.4,1-0.4,1.6-0.4c7.6,0,15.1,0,22.7,0
	c0.5,0,1,0,1.5,0.3c0.1,0.8-0.6,0.6-0.9,0.7c-1.2,0.1-2.4,0.1-3.5,0c-2.3,0-4.6,0-6.9,0c-2.1,0-4.1,0-6.2,0c-1.3,0-1.4,0.1-1.4,1.4
	c0,0.7,0.1,1.4-0.3,2.1c-1,0.5-2.2,0.2-3.2,0.3c-0.4,0-0.9,0-1.3,0c-0.6,0-1.2,0.1-1.8-0.3C-3.8-23.1-4.2-22.9-4.4-23.2z"/>
<path class="st20" d="M-27.5-109.8c0-1.3,0-2.6,0-4c2.6,0,5.1,0,7.7,0c0.6,1.4,0.6,2.7,0,4.1c-0.4,0.3-0.9,0.3-1.4,0.3
	c-1.6,0-3.3,0-4.9,0C-26.5-109.3-27.1-109.2-27.5-109.8z"/>
<path class="st21" d="M-19.8-109.8c0-1.3,0-2.6,0-3.9c1.8,0,3.7-0.1,5.5-0.1c0.1-0.1,0.3-0.1,0.4-0.2c0.7-0.1,1.3-0.2,1.9,0.3
	c0.4,1.3,0.4,2.5,0,3.8c-0.6,0.6-1.5,0.2-2.2,0.5c-1.5,0.2-3.1,0.1-4.6,0.1C-19.1-109.3-19.5-109.3-19.8-109.8z"/>
<path class="st22" d="M17.7-26.8c1.5-0.2,3.1,0.2,4.6-0.2c0.9-0.6,1.8-1,2.9-0.8c-0.5,1.2-0.2,2.5-0.2,3.7c0,0.2,0.2,0.3,0.4,0.3
	c-0.8,0.5-1.8,0.4-2.6,0.7c-0.3,0.3-0.7,0.3-1.1,0.3c-1.3-0.1-2.7,0.3-4-0.3C17.2-24.3,17-25.6,17.7-26.8z"/>
<path class="st23" d="M-18.3-62.2c0-0.1,0-0.1,0-0.2c0.7,0.1,1.5-0.3,2.2,0.3C-16.9-62.1-17.6-62.2-18.3-62.2z"/>
<path class="st1" d="M263.6,90.7c0-0.2-0.1-0.4-0.1-0.6c0-17,0-34,0-51c0-0.6,0-1.2,0-1.8c-0.3-0.8,0-1.7-0.2-2.5
	c-0.1-0.4-0.2-0.8-0.2-1.2c0.1-1.2-0.3-2.3-1.2-3.1c-0.7-1.2-1.6-2-2.9-2.5c-1.6-0.7-3.4-0.8-5.1-1.1c-1.8-0.1-3.7-0.1-5.5,0
	c-0.2,0-0.4,0.1-0.6,0.1c-3.9,0.3-7.3,1.4-8.7,5.5c-0.5,0.5-0.5,1.1-0.4,1.7c-0.1-0.3-0.2-0.5-0.6-0.5c-0.7-0.7-1.4-1.5-2.2-2.2
	c-0.3-0.6-0.7-1-1.4-1c-0.8-0.4-1.6-0.9-2.4-1.3c-0.3-0.6-0.8-0.7-1.4-0.6c-1.8-0.6-3.6-1.1-5.5-1.5c-0.4-0.2-0.9,0-1.3-0.2
	c-1.3,0-2.6,0-3.9,0c-0.4,0.2-0.9,0-1.3,0.2c-1.2,0.1-2.3,0.6-3.5,0.6c-0.6,0.2-1.3-0.2-1.7,0.5c-1.1,0.5-2.3,0.9-3.4,1.4
	c-0.7-0.1-1.2,0.3-1.7,0.8c-0.9,0.6-1.7,1.1-2.6,1.7c-1,0.3-1.8,0.8-2.4,1.7c-0.6,0.6-1.3,1.1-1.9,1.7c-0.7,0.2-1.2,0.6-1.4,1.2
	c-0.1,0.3-0.4,0.5-0.7,0.7c-0.7,0.3-1,0.8-1.2,1.4c-1,1.3-2.1,2.6-3.1,3.8c-0.6,0.3-1,0.7-1,1.4c-0.8,1.4-1.6,2.9-2.4,4.3
	c-0.5,0.4-0.7,0.9-0.6,1.5c-0.1,0.3-0.2,0.6-0.3,0.9c-0.7,0.6-1,1.3-0.7,2.2c-0.4,1.6-0.8,3.2-1.2,4.8c-0.4,0.5-0.6,1.1-0.2,1.7
	c0.2,0.4,0,0.8,0,1.2c-0.1,2.1-0.1,4.2,0,6.2c0.1,1,0.2,2.1,0.3,3.1c-0.4,0.7-0.1,1.3,0.2,1.9c0.2,0.7,0.7,1.3,0.5,2.1
	c0.1,0.6,0,1.2,0.5,1.7c0.5,1.1,0.9,2.2,1.4,3.4c0,1.3,0.6,2.3,1.5,3.1c0.3,0.5,0.6,1,0.9,1.5c-0.1,0.8,0.4,1.3,1,1.7
	c0.3,0.2,0.5,0.3,0.5,0.7c0.1,0.5,0.4,1,0.9,1.2c0.5,0.2,0.7,0.8,1,1.2c0.4,0.7,0.7,1.4,1.5,1.7c3.5,3.5,7.2,6.6,11.7,8.7
	c1.3,0.7,2.5,1.5,4.1,1.4c0.4,0.3,1,0.1,1.4,0.5c0.1,0.1,0.2,0.1,0.3,0.2c0.4,0.1,0.8,0.1,1.3,0c0.1,0,0.1,0,0.2,0
	c1.3,0.3,2.6,0.1,3.8,0.3c0.6,0.1,1.1,0.1,1.7,0c2.2-0.1,4.3-0.3,6.4-0.9c3.5-0.9,6.3-2.8,8.7-5.4c0.7-0.5,0.9,0,1.2,0.5
	c0,0.1,0,0.2,0,0.2c0.1,0.6,0.1,1.3,0.7,1.7c0.5,0.6,0.9,1.4,1.6,1.9c1.6,1.1,3.2,1.7,5.1,1.8c0.4,0.2,0.9,0,1.2,0.2
	c0.7,0,1.4,0,2.1,0.1c0.7,0.1,1.4,0.1,2.1,0c0.7,0,1.4,0,2.1-0.1c0.6-0.1,1.1,0.2,1.7,0.1c0.1,0,0.2,0,0.4-0.1
	c0.6-0.1,1.1-0.5,1.7-0.7c2.3-0.8,3.8-2.2,4.6-4.5c0.3-0.9,0.5-1.8,0.7-2.7C263.7,92.3,263.4,91.5,263.6,90.7z M225.9,76.3
	c-6.9,0-12.7-5.6-12.6-12.3c0-6.9,5.7-12.5,12.5-12.4c6.7,0,12.2,5.7,12.2,12.5C237.9,70.7,232.3,76.3,225.9,76.3z"/>
<path id="dentro_do_O" class="st24" d="M-188.5,63.8c0,7.8-6.2,14-14,14c-7.8,0-13.7-6-13.7-13.9c0-7.8,5.9-13.8,13.6-13.8
	C-194.3,50-188.5,55.6-188.5,63.8z"/>
<path class="st25" d="M31.4-67.9c0.1,1.2,0.1,2.4,0,3.6c-1.7,0.3-3.4,0-5.1,0.1c-0.3,0-0.5-0.1-0.7-0.4C17.5-75.8,9.1-86.9,1-98
	c-2.5-3.4-5-6.8-7.5-10.2c-0.3-0.5-1.1-1-0.1-1.7c2.2-0.1,4.5-0.1,6.7,0c0.4,0.1,0.6,0.4,0.8,0.7c6.6,9.1,13.3,18.1,20,27.1
	C24.3-77.4,27.7-72.6,31.4-67.9z"/>
<path class="st26" d="M31.4-67.9c-1.3-0.4-1.7-1.7-2.3-2.6c-4.9-6.6-9.7-13.2-14.6-19.8c-4.6-6.2-9.1-12.3-13.7-18.5
	c-0.2-0.2-0.2-0.6-0.4-0.9c0.5-0.6,1.3-0.3,1.9-0.4c0.7,0,1.5,0,2.2,0c0.5,0,1.1,0,1.6,0.1c0.6,0.3,0.8,0.9,1.1,1.4
	c6.3,8.5,12.5,17,18.8,25.5c1.8,2.4,3.7,4.7,5.3,7.3C31.4-73.2,31.4-70.5,31.4-67.9z"/>
<path class="st27" d="M59.9-64.3c-1.6,0.1-3.2,0.1-4.8,0c-2.5-3.1-4.8-6.4-7.2-9.6c-3.8-5.1-7.5-10.2-11.3-15.3
	c-0.3-0.4-0.6-0.7-1.1-0.8c0-2.3,0-4.6,0-7c0.6-0.1,0.9,0.4,1.2,0.8c3.7,5,7.4,10,11.1,15.1c3.9,5.3,7.8,10.5,11.7,15.8
	C59.7-65,59.9-64.6,59.9-64.3z"/>
<path class="st28" d="M31.4-88.8c0,2.6,0,5.1,0,7.7c-0.6,0.3-0.8-0.2-1-0.5c-6.6-8.9-13.2-17.8-19.7-26.7c-0.3-0.4-1.1-1-0.1-1.6
	c1.7-0.2,3.4-0.1,5.1,0c0.9,0.6,1.4,1.6,2,2.5c4.4,5.9,8.7,11.9,13.1,17.8C31-89.4,31.1-89.1,31.4-88.8z"/>
<path class="st4" d="M35.5-90c0.7-0.8,0.9,0.1,1.1,0.4c1.1,1.4,2.1,2.8,3.2,4.2c3.7,5,7.4,10.1,11.2,15.1c1.2,1.7,2.5,3.3,3.7,5
	c0.2,0.3,0.6,0.6,0.5,1c-1.9,0.1-3.8,0.1-5.8,0c-1.7-2-3.1-4.1-4.7-6.2c-2.7-3.7-5.4-7.3-8.1-11c-0.3-0.4-0.5-0.8-1.1-0.6
	C35.5-84.7,35.5-87.3,35.5-90z"/>
<path class="st13" d="M10.2-109.6c1.1,2.1,2.7,3.9,4.1,5.8C19.2-97.2,24.1-90.6,29-84c0.7,1,1.3,2.2,2.4,2.9c0,1.8,0,3.5,0,5.3
	c-1.5-1.3-2.5-3-3.7-4.6C21.1-89.3,14.5-98.1,8-107c-0.6-0.8-1.4-1.6-1.6-2.6C7.7-110.2,8.9-110.2,10.2-109.6z"/>
<path class="st4" d="M31.4-88.8c-1.6-1.3-2.6-3.1-3.8-4.7c-3.7-5-7.4-10-11.1-15.1c-0.2-0.3-0.5-0.6-0.5-1c0.3-0.4,0.7-0.4,1.1-0.4
	c1.6,0,3.2-0.1,4.7,0c0.7,0.1,0.9,0.7,1.3,1.2c2.7,3.7,5.4,7.5,8.3,11.1C31.4-94.7,31.4-91.7,31.4-88.8z"/>
<path class="st29" d="M35.5-82.1c0.6-1.1,0.9-0.1,1.2,0.2c1.2,1.6,2.4,3.3,3.6,4.9c2.8,3.8,5.5,7.5,8.3,11.3
	c0.3,0.4,0.7,0.8,0.8,1.4c-2.3,0.1-4.6,0.1-7,0c-1.9-2.6-3.8-5.3-5.8-7.9c-0.3-0.4-0.5-0.8-1.1-0.6C35.5-75.8,35.5-78.9,35.5-82.1z"
	/>
<path class="st30" d="M31.4-97.7c-0.4,0-0.6-0.2-0.8-0.5c-2.7-3.7-5.4-7.3-8-11c-0.1-0.2-0.2-0.3-0.3-0.5c0.2-0.3,0.6-0.4,1-0.4
	c2.7,0,5.5-0.1,8.2,0.3C31.3-105.7,31.3-101.7,31.4-97.7z"/>
<path class="st31" d="M25.8-64.3c1.8,0,3.7,0,5.5,0c0,0,0,0.1,0,0.2c-14.5,0-28.9,0-43.4,0c-0.2-1.2-0.9-1.9-2-2.1
	c-0.1-0.2-0.2-0.3-0.2-0.5c-0.1-2.7-0.2-5.4,0.1-8.1c0.6-0.8,1-0.2,1.3,0.2c1,1.2,1.9,2.4,2.7,3.6c1.3,1.9,2.7,3.6,4.1,5.5
	c0.5,0.7,1,0.9,1.8,0.9c2.5,0,4.9,0,7.4,0c3,0,6.1,0,9.1,0c2.7-0.1,5.4-0.1,8.1,0c1.4-0.1,2.9,0,4.3,0C25-64.7,25.5-64.6,25.8-64.3z
	"/>
<path class="st32" d="M35.5-72.7c0.7-1.2,1,0,1.2,0.3c1.5,1.9,2.9,3.9,4.3,5.9c0.5,0.7,1.3,1.3,1.4,2.3c-2.3,0-4.6,0.1-6.9,0.1
	C35.5-67,35.5-69.9,35.5-72.7z"/>
<path class="st33" d="M23.7-113.8c1.4,0,2.7,0,4.1,0c0.6,0,1.3,0.1,1.9,0.1c0,1.3,0,2.5,0,3.8c-2.6,0.3-5.1,0.1-7.7,0.1
	c-0.6-1.3-0.6-2.6,0-3.9C22.5-113.7,23.1-113.8,23.7-113.8z"/>
<path class="st34" d="M22-109.9c2.6,0,5.1,0,7.7,0c0.6,0.1,1.2-0.2,1.7,0.2c-3,0-6.1,0-9.1,0c-2.1,0-4.2,0-6.2,0c-1.9,0-3.8,0-5.8,0
	c-1.3,0-2.6,0-3.8,0c-0.6,0-1.1-0.1-1.7-0.1c-0.1-0.2,0-0.3,0.1-0.4c0.6-0.3,1.1-0.2,1.7-0.2c2.3-0.1,4.5,0,6.8,0
	c2.4-0.1,4.8,0,7.3,0C21.1-110.3,21.6-110.3,22-109.9z"/>
<path class="st2" d="M129,138.7c0-0.1,0-0.3-0.1-0.4c-0.1-0.3,0.2-0.8-0.3-1c-0.5-1.4-1.1-2.8-1.9-4.1c-0.2-0.4-0.3-0.8-0.8-1
	c-0.5-0.5-0.9-0.9-1.4-1.4c-0.1-0.5-0.6-0.6-1-0.8c-1.9-1.1-3.8-1.9-6-2.2c-0.9-0.1-1.7-0.1-2.6,0c-1.7,0.3-3.4,0.6-5,1.5
	c-0.4,0.1-0.8,0.2-1.1,0.6c-1.3,0.8-2.3,1.9-3.2,3.2c-0.4,0.2-0.5,0.7-0.6,1.1c-0.2,0.4-0.4,0.7-0.5,1.1c-0.1,0.3-0.5,0.6-0.4,1
	c-0.4,0.8-0.5,1.7-0.6,2.6c-0.1,1.1-0.1,2.2,0,3.3c0,0.2,0,0.4,0.1,0.7c0.1,0.3-0.1,0.7,0.2,1c0.3,0.8,0.4,1.7,1,2.5
	c0.3,0.3,0.2,0.9,0.7,1.1c0.1,0.3,0.3,0.6,0.5,0.8c0.2,0.3,0.3,0.7,0.7,0.9c0.2,0.2,0.5,0.5,0.7,0.7c0.2,0.4,0.5,0.5,0.9,0.7
	c0.7,0.7,1.5,1.2,2.5,1.5c0.3,0.1,0.6,0.5,1,0.4c0.7,0.4,1.6,0.4,2.4,0.6c1.4,0.1,2.7,0.1,4.1,0c0.6-0.1,1.1-0.2,1.7-0.4
	c0.3,0,0.6,0.1,0.7-0.3c0.8-0.4,1.6-0.7,2.4-1.1c0.4-0.2,0.8-0.3,1-0.7c0.1-0.1,0.2-0.1,0.3-0.2c0.9-0.3,1.6-1,1.9-1.9
	c0.3-0.5,0.7-1,1-1.4c0.4-0.3,0.7-0.7,0.7-1.2c0.3-1.3,0.7-2.6,1-3.8C129.2,141,129.2,139.9,129,138.7z M116.4,148.7
	c-4.5,0-8.1-3.6-8-8.1c0-4.5,3.6-8.1,8.1-8.1c4.4,0,8,3.7,8,8.1C124.5,145.1,120.9,148.7,116.4,148.7z"/>
<path class="st2" d="M271.3,143.9c-0.3-0.7-0.3-0.9,0.4-1.3c2.7-1.5,4.4-3.8,4.3-7c-0.1-4.1-3.4-7.3-7.6-7.4c-3.3-0.1-6.6,0-9.9,0
	c-0.4,0-0.8-0.1-0.9,0.5c-0.1,0.2-0.1,0.5-0.1,0.7c0,7.5,0,15,0,22.6c0,0.2,0,0.5,0.1,0.7c0.1,0.1,0.2,0.2,0.3,0.3
	c1.2,0.2,2.4,0,3.6,0.2c0.4,0.1,0.6-0.1,0.7-0.5c0-2.2,0-4.5,0-6.7c0-2.6,0-2.6,2.6-2.7c0.8,0,1.2,0.2,1.6,1
	c1.2,2.5,2.5,4.9,3.7,7.3c0.3,0.6,0.2,1.5,1.2,1.5c1.3,0,2.6,0,3.9,0c0.4,0,0.7-0.2,0.6-0.6C274.5,149.5,272.8,146.7,271.3,143.9z
	 M268.1,139.5c-1.7,0-3.4,0-5.2,0c-0.6,0-0.8-0.2-0.7-0.8c0-0.9,0-1.8,0-2.8c0,0,0.1,0,0.1,0c0-1.1-0.4-2.6,0.1-3.2
	c0.6-0.7,2.2-0.2,3.3-0.2c0.8,0,1.6,0,2.4,0c1.9,0.1,3.4,1.6,3.3,3.4C271.5,137.8,270,139.4,268.1,139.5z"/>
<path class="st2" d="M246.8,150.8c-0.7-1.4-1.4-2.8-1.9-4.3c-0.2-0.5-0.2-1.2-0.7-1.5c-0.7-1.4-1.4-2.8-1.9-4.3
	c-0.2-0.5-0.2-1.2-0.7-1.5c-0.3-0.3-0.4-0.7-0.5-1.1c-0.2-0.5-0.1-1.2-0.7-1.5c-0.7-1.4-1.4-2.8-1.9-4.3c-0.2-0.5-0.2-1.2-0.7-1.5
	c-0.5-1-0.9-1.9-1.4-2.9c-0.4-0.3-0.8-0.2-1.2-0.1c-1.2,1.9-1.9,4.1-2.9,6c-0.5,0.4-0.5,1-0.7,1.5c-0.3,0.5-0.5,1.1-0.8,1.6
	c-0.5,0.4-0.5,1-0.7,1.5c-0.3,0.5-0.5,1.1-0.8,1.6c-0.5,0.4-0.5,1-0.7,1.5c-0.3,0.5-0.5,1.1-0.8,1.6c-0.5,0.4-0.5,1-0.7,1.5
	c-0.3,0.5-0.5,1.1-0.8,1.6c-0.5,0.4-0.5,1-0.7,1.5c-0.3,0.5-0.5,1.1-0.8,1.6c-0.5,0.4-0.5,1-0.7,1.5c-0.1,0.6-1,1.3,0,1.9
	c1.1,0.2,2.3,0,3.4,0.1c0.5,0.1,0.7-0.3,0.9-0.7c0-0.2,0-0.4,0.2-0.5c0.6-0.3,0.6-0.9,0.7-1.5c0.1-0.4,0.2-0.8,0.5-1.2
	c0.7-0.7,1.5-0.9,2.5-0.8c0.8,0.1,1.7,0,2.5,0c1.9,0.1,3.9-0.2,5.8,0.1c0.2,0.5,0.2,1.1,0.7,1.4c0.2,0.4,0.4,0.8,0.5,1.1
	c0.2,0.6,0.1,1.5,1,1.7c0.1,0,0.1,0,0.2,0.1c1.3,0.1,2.6,0.2,3.8,0c0.1-0.1,0.2-0.2,0.3-0.3C247.6,151.9,247.5,151.2,246.8,150.8z
	 M232.2,144.4c1.1-2.6,2.3-5.1,3.5-7.8c1.2,2.7,2.4,5.2,3.5,7.8C236.8,144.4,234.5,144.4,232.2,144.4z"/>
<path class="st2" d="M90.4,129.2c-0.3-0.2-0.5-0.5-1-0.5c-0.5-0.1-0.9-0.2-1.4-0.3c-3.3-0.5-6.5-0.1-9.8-0.2c-0.7,0-0.7,0.3-0.7,0.9
	c0,7.5,0,15.1,0,22.6c0,0.4,0,0.9,0.4,1.2c1.2,0.2,2.4,0,3.6,0.1c0.5,0,0.6-0.3,0.7-0.7c0-2.5,0-5-0.1-7.5c0-0.7,0.2-0.9,0.9-0.8
	c1.5,0,2.9,0,4.4,0c0.4-0.3,0.9,0.2,1.2-0.2c0.2-0.1,0.4-0.3,0.7-0.3c0.4,0.1,0.7-0.2,1-0.5c0.2-0.1,0.5-0.3,0.7-0.4
	c0.4-0.2,0.9-0.3,0.9-0.8c0.1-0.1,0.1-0.1,0.2-0.2c0.5-0.1,0.5-0.6,0.8-1c0.1-0.2,0.2-0.3,0.3-0.5c0.2-0.2,0.5-0.4,0.4-0.7
	C95.1,134.6,94.2,131.9,90.4,129.2z M86,139.7c-1,0-1.9-0.1-2.9,0c-0.8,0.1-1-0.3-1-1c0.1-0.8,0-1.7,0-2.5c0-0.9,0-1.8,0-2.8
	c0-0.6,0.2-0.9,0.8-0.8c1.1,0,2.2,0,3.2,0c2.2,0.1,3.7,1.6,3.7,3.5C89.8,138.1,88.2,139.6,86,139.7z"/>
<path class="st2" d="M157.6,134.9c-0.2-0.5-0.3-0.9-0.3-1.4c0.1-0.4-0.2-0.7-0.5-1c-1.4-2.3-3.4-3.9-6.1-4.2
	c-3.1-0.3-6.3-0.1-9.4-0.1c-0.3,0-0.4,0.2-0.5,0.4c-0.1,0.3-0.1,0.5-0.1,0.8c0,7.4,0,14.7,0,22.1c0,0.3,0,0.6,0.1,0.8
	c0,0.1,0.1,0.1,0.1,0.2c0.1,0.2,0.2,0.5,0.5,0.4c1.3-0.1,2.5,0.1,3.8-0.2l0,0c0.6-0.2,0.4-0.7,0.4-1.1c0.1-2.6-0.2-5.1,0.1-7.7
	c0.4,0,0.9,0,1.3-0.1c1.7-0.1,3.5,0.2,5.1-0.3c0.4,0.1,0.7-0.2,1-0.4c1.5-0.8,2.7-2,3.7-3.4c0.2-0.2,0.4-0.4,0.4-0.7
	c0.2-0.7,0.4-1.4,0.6-2.2C157.7,136.3,157.8,135.6,157.6,134.9z M152.1,138.5c-0.7,0.7-1.6,1.1-2.5,1.2c-1.2,0-2.3,0-3.5,0
	c-0.6,0-0.8-0.2-0.7-0.8c0-1,0-1.9,0-3.1c0.1-0.9-0.5-2.7,0.2-3.1c1.4-0.6,3.1-0.4,4.7-0.1C153,133.3,154,136.4,152.1,138.5z"/>
<path class="st35" d="M22-109.9c-2.9,0-5.8,0-8.6,0c-0.6-1.3-0.6-2.5,0-3.8c1.8,0,3.7-0.1,5.5-0.1c1,0,2.1,0.1,3.1,0.1
	C22-112.4,22-111.2,22-109.9z"/>
<path class="st36" d="M13.3-113.7c0,1.3,0,2.5,0,3.8c-2.3,0-4.6,0-7,0c-0.6-1.3-0.6-2.5,0-3.8c0.1,0,0.2-0.1,0.2-0.1
	c1.9,0,3.8,0,5.8,0C12.7-113.8,13-113.7,13.3-113.7z"/>
<path class="st23" d="M-18.3-62.4c-2.7,0-5.3,0-8,0c-0.8,0-1.1-0.1-1.1-1c0-2.6-0.1-2.6,2.6-2.6c2.2,0,4.4,0,6.6,0
	C-18.3-64.8-18.3-63.6-18.3-62.4z"/>
<path class="st23" d="M-18.3-66.2c1.4,0,2.8,0,4.3,0c-1.4,0.5-2.8,0.1-4.3,0.2C-18.3-66-18.3-66.1-18.3-66.2z"/>
<path class="st26" d="M-14-128.9c-0.1-2.5-0.1-5,0-7.4c0.5,0,0.7,0.4,1,0.7c4.9,6.6,9.7,13.2,14.6,19.8c0.5,0.6,1,1.2,1.2,2
	c-0.3,0.4-0.8,0.4-1.2,0.4c-1.3,0-2.6,0.1-3.9-0.1c-0.5-0.1-0.8-0.5-1.1-0.9c-3.3-4.6-6.7-9.2-10.1-13.7
	C-13.7-128.3-13.8-128.6-14-128.9z"/>
<path class="st37" d="M-2.7-113.8c1.8,0,3.7,0,5.5,0c1.2,0,2.4,0.1,3.6,0.1c0,1.3,0,2.5,0,3.8c-0.6,0-1.1,0-1.7,0
	c-2.5,0.2-5.1,0.1-7.6,0.1c-0.7-1.2-0.5-2.5-0.2-3.8C-3-113.8-2.9-113.8-2.7-113.8z"/>
<path class="st38" d="M2.8-23.1c0.1-1.2-0.5-2.8,0.3-3.6c0.7-0.7,2.3-0.2,3.5-0.2c1.4,0,2.8,0,4.2,0c0.6,1.3,0.6,2.6,0,3.9
	C8.1-22.9,5.4-22.7,2.8-23.1z"/>
<path class="st39" d="M10.7-23.1c0-1.3,0-2.5,0-3.8c2.3,0,4.6,0,7,0c0,1.3,0,2.5,0,3.8C15.3-22.8,13-22.8,10.7-23.1z"/>
<path class="st40" d="M-2.7-113.8c-0.1,0-0.2,0.1-0.2,0.1c-0.4,0.3-0.8,0.3-1.2,0.3c-2.2,0-4.4,0-6.7,0c-0.4,0-0.9,0-1.2-0.3
	c-0.7,0-1.3-0.1-2-0.1c0-5,0-10.1,0.1-15.1c1.5,1.1,2.3,2.8,3.4,4.2c2.4,3.2,4.8,6.4,7.2,9.6C-3.2-114.6-3-114.2-2.7-113.8z"/>
<path class="st41" d="M-12.1-113.7c3,0,6.1,0,9.1,0c0,1.3,0,2.5,0,3.8c-2.8,0.1-5.6,0.5-8.4,0.3c-0.3,0-0.5-0.1-0.7-0.3
	C-12.1-111.2-12.1-112.4-12.1-113.7z"/>
<path class="st42" d="M-12.1-109.9c3,0,6.1,0,9.1,0c2.6,0,5.1,0,7.7,0c0,0.1,0,0.1,0,0.2c-1.4,0-2.9,0.1-4.3,0.1c-2.5,0-5,0-7.4,0
	c-0.7,0.5-1.5,0.3-2.3,0.3c-1.1,0-2.1,0-3.2,0c-0.5,0-1.1,0-1.6-0.3c0,0-0.1,0-0.1,0C-13.5-110.1-12.8-109.8-12.1-109.9z"/>
<path class="st43" d="M-12.6-109.6c1.8,0,3.7,0,5.5,0c1.1,2.2,2.8,4,4.2,5.9c4.8,6.6,9.7,13.2,14.6,19.8C16.1-77.9,20.5-72,25-66
	c0.4,0.5,0.9,0.9,0.9,1.7c-1.8,0-3.7,0-5.5,0c-0.8-0.7-1.3-1.6-2-2.4C10.7-77.1,3.1-87.5-4.6-97.8c-2.5-3.4-5-6.8-7.5-10.1
	C-12.4-108.4-13-108.9-12.6-109.6z"/>
<path class="st44" d="M-12.6-109.6c0.2,1.4,1.4,2.3,2.1,3.4c6.9,9.4,13.9,18.7,20.8,28.1c3.1,4.2,6.2,8.4,9.3,12.7
	c0.2,0.3,0.6,0.7,0.6,1.1c-2.7,0-5.4,0-8.2,0c-1.8-2.2-3.4-4.5-5.1-6.8c-4.8-6.5-9.6-13-14.4-19.5c-2.2-3-4.4-6-6.7-8.9
	c0-3.4,0-6.7,0-10.1C-13.6-109.6-13.1-109.6-12.6-109.6z"/>
<path class="st45" d="M-14-99.6c0.9,0.2,1.2,1,1.6,1.6C-7.2-91-2.1-84.1,3-77.1c2.9,4,5.9,7.9,8.8,11.9c0.2,0.2,0.2,0.6,0.4,0.9
	c-3.1,0-6.2,0-9.4,0c-1-0.9-1.6-2-2.4-3C-4.4-73.8-9.2-80.4-14-86.9C-14.1-91.1-14.1-95.3-14-99.6z"/>
<path class="st46" d="M-14-86.9c0.8,0.1,1,0.9,1.5,1.5c4.9,6.6,9.8,13.2,14.7,19.8c0.3,0.4,0.6,0.7,0.7,1.2c-2.6,0-5.2,0-7.8,0.1
	c-0.6,0-0.9-0.3-1.2-0.8c-2.4-3.2-4.7-6.4-7.1-9.6c-0.2-0.3-0.4-0.5-0.8-0.5C-14.1-79-14.1-82.9-14-86.9z"/>
<path class="st1" d="M-163.5,61.5c0-0.5,0-1.1-0.1-1.6c-0.2-0.4,0-0.9-0.2-1.3c-0.6-4-1.5-7.8-3.3-11.4c-3.9-8-10-13.7-17.7-17.8
	c-3.8-2-7.9-3.2-12.1-3.9c-0.4-0.2-0.9,0-1.3-0.2l-1.1-0.1c-2.1-0.1-4.2-0.1-6.2,0c-0.4,0-0.8,0-1.2,0.1c-0.4,0.2-0.8,0-1.2,0.2
	c-5.8,0.9-11.1,2.8-15.9,6.1c-2.8,1.9-5.3,4.2-7.7,6.6c-3.1,3.2-5.3,6.9-7,10.9c-1.4,3.3-2.2,6.9-2.5,10.5c-0.2,0.4,0,0.9-0.2,1.3
	l0,6.3c0.2,0.5,0,1,0.2,1.5c0.1,1,0.1,2,0.3,2.9c1.1,4.6,2.7,9,5.4,13c2.3,3.3,4.9,6.3,8,9c3.5,3,7.4,5.1,11.6,6.8
	c3.3,1.3,6.7,2.1,10.2,2.2c0.2,0.1,0.4,0.1,0.7,0.1c0.1,0,0.2,0,0.3,0c0.1,0,0.2,0,0.2,0c0.4,0,0.8,0,1.2,0.1c0.6-0.1,1.2-0.1,1.7,0
	c0.7-0.2,1.5,0,2.2-0.2c0.7-0.1,1.5-0.2,2.2-0.3c5.1-0.7,9.8-2.3,14.3-4.9c4.2-2.4,7.7-5.6,10.7-9.3c5.1-6.3,7.8-13.5,8.4-21.6
	C-163.4,64.8-163.4,63.1-163.5,61.5z M-201.4,77.7c-7.8,0-13.7-6-13.7-13.9c0-7.8,5.9-13.8,13.6-13.8c8.4,0,14.1,5.6,14.1,13.8
	C-187.4,71.6-193.6,77.7-201.4,77.7z"/>
<path class="st2" d="M-127,138.7c-0.1-0.3-0.2-0.7-0.3-1c-1.1-4.8-5.3-8.6-10.2-9.3c-3.2-0.4-6.5-0.1-9.7-0.2
	c-0.9,0-1.2,0.3-1.2,1.1c0,7.6,0,15.1,0,22.7c0,0.4-0.1,0.8,0.4,0.9c3.2,0.1,6.4,0.1,9.6,0c1.7-0.3,3.4-0.6,4.9-1.5
	c3.5-2.1,5.6-5.1,6.4-9.1C-126.9,141.1-126.9,139.9-127,138.7z M-131.7,142c-0.3,3.9-3.5,6.9-7.3,7.1c-1.2,0-2.5,0-3.7,0
	c-0.7,0-0.9-0.2-0.9-0.9c0-2.4,0-4.8,0-7.2c0-2.4,0-4.7,0-7.1c0-0.8,0.2-1,1-1c1.6,0.1,3.3-0.1,4.9,0.2
	C-133.8,134.1-131.3,137.7-131.7,142z"/>
<path class="st2" d="M46.4,130.8c-2-1.6-4.2-2.4-6.7-2.9c-1-0.1-1.9-0.1-2.9,0c-0.1,0-0.2,0.1-0.4,0.1c-4.7,0.6-8.1,3.1-9.9,7.4
	c-1.9,4.4-1.4,8.8,1.3,12.8c2,2.9,4.8,4.5,8.2,5c1.4,0.1,2.9,0.1,4.3,0c3.1-0.6,5.6-2.1,7.6-4.4C52.6,143.2,51.7,135.2,46.4,130.8z
	 M38.2,149.1c-4.5,0-8.1-3.6-8.1-8.1c0-4.4,3.7-8.1,8.1-8.1c4.4,0,8.1,3.7,8.1,8.1C46.3,145.5,42.6,149.1,38.2,149.1z"/>
</svg>
