<?xml version="1.0" encoding="utf-8"?>
<!-- Generator: Adobe Illustrator 22.1.0, SVG Export Plug-In . SVG Version: 6.00 Build 0)  -->
<svg version="1.1" id="Camada_1" xmlns="http://www.w3.org/2000/svg" xmlns:xlink="http://www.w3.org/1999/xlink" x="0px" y="0px"
	 viewBox="0 0 16 16" style="enable-background:new 0 0 16 16;" xml:space="preserve">
<style type="text/css">
	.st0{fill:#FFFFFF;}
	.st1{fill:none;}
	.st2{fill:#56A4C8;}
</style>
<path class="st0" d="M29.4,100.9c-3-0.2-5.8-1.2-8.6-2.2c-0.9-0.1-1.6-0.4-2.2-1.1c-0.2-0.1-0.3-0.2-0.5-0.3
	c-0.6,0.1-0.9-0.3-1.2-0.7c-1.4-1-2.7-2.1-4.1-3.1c-1.1-0.5-1.9-1.3-2.4-2.4c-1.7-2-3.2-4-4.6-6.2C5.4,84.6,5,84.3,5,83.7
	c-0.2-1.2-1-2.2-1.4-3.3c-1.1-3-2.1-6.1-2.6-9.3c0-1.1,0-2-0.2-2.9c-0.2-0.6,0.1-1.2-0.2-1.7c0-10.2,0-20.4,0-30.6
	c0.2-0.5,0-1,0.2-1.5C1.3,31.6,2.1,29,5,27.7c0.1-0.1,0.3-0.1,0.4-0.1c0.4-0.4,0.9-0.6,1.4-0.4c0.6-0.1,1.3-0.2,1.9-0.3
	c0.4-0.2,0.9,0,1.3-0.2c2.1,0,4.3-0.2,6.4,0.2c0.6-0.3,1-0.3,1.4,0.2c2.4,0.4,4.6,1.3,6.2,3.2c0.6,0.3,0.6,0.9,0.7,1.5
	c1.3,4.6,0.7,9.2,0.7,13.9c0.1,6.3,0,12.6,0.1,18.9c0.2,0.6-0.1,1.2,0.2,1.7c-0.1,0.7,0.1,1.3,0.3,1.9c0.8,0.8,1,1.9,1.3,2.9
	c0.4,1,1.2,1.7,2,2.4c0.6,0.1,1,0.4,1.2,0.9c1.6,1.1,3.4,1.8,5.4,1.7c1.2,0.2,2.4,0.2,3.6,0c0.4,0,0.7,0,1.1-0.1
	c0.5-0.7,1.3-0.6,1.9-0.7c2.7-1,4.7-2.6,6.1-5.2c0.2-0.5,0.5-1,0.7-1.4c0-0.6,0-1.2,0.4-1.8c0.1-0.3,0.5-0.5,0.3-0.8
	c0.2-0.4,0-0.9,0.2-1.3c0-4.9,0-9.8,0-14.7s0-9.8,0-14.7c0.2-0.4,0-0.9,0.2-1.3c0.1-1.4,0.7-2.6,1.2-3.8c-0.1-0.6,0.3-1,0.8-1.2
	c1-0.8,2.1-1.4,3.3-1.7c0.5-0.5,1.2-0.7,1.9-0.5c0.2,0,0.5,0,0.7,0c0.4-0.2,0.9,0,1.3-0.2c2,0,4.1,0,6.1,0c0.4,0.2,0.9,0,1.3,0.2
	c1.3,0.3,2.6,0.7,3.8,1c0.7,0,1.2,0.3,1.4,1c0.2,0.2,0.5,0.5,0.7,0.7c0.9,0.6,1.3,1.5,1.3,2.6c0.4,1.2,0.6,2.4,0.7,3.6
	c0.1,0.3,0.1,0.7,0.1,1.1c0,18.2,0,36.3,0,54.5c0,0.4,0.1,0.7-0.1,1.1c-0.1,1.6-0.5,3.2-1.3,4.6c-1,1.9-2.5,2.9-4.5,3.5
	c-0.3,0.1-0.5,0.2-0.8,0.3c-0.3,0.3-0.7,0.4-1.2,0.3c-0.4-0.2-0.8-0.1-1.2,0c-0.6,0.2-1.2-0.1-1.8,0.2c-1.1,0-2.3,0-3.4,0
	c-0.6-0.2-1.2,0-1.8-0.2c-1.5-0.2-3-0.3-4.5-1c-2.3-1-3.6-2.8-4-5.3c-0.2-0.4,0-0.9-0.2-1.3c0.1-0.3,0.2-0.7-0.1-0.9
	c-0.3-0.2-0.5,0.3-0.7,0.5c-1.7,1.8-3.5,3.5-5.6,4.8c-2.9,1.8-6,2.9-9.4,3.1c-0.6,0.1-1.1,0.1-1.7,0c-0.8,0-1.5,0-2.3-0.1
	C30.3,100.8,29.8,101,29.4,100.9z"/>
<path class="st0" d="M-139.1,26.9c1.5,0.2,3,0.4,4.5,0.9c2.7,0.8,3.9,2.9,4.6,5.4c0.2,0.5,0,1,0.2,1.5c0,0.3-0.2,0.9,0.4,0.3
	c0.8-0.7,1.5-1.3,2.2-2.1c2.9-3.3,6.7-4.9,10.9-5.8c0.5-0.1,0.9-0.2,1.4-0.3c1.5-0.1,3-0.1,4.5,0c6.2,0.6,11.8,2.6,16.6,6.5
	c6.2,5.2,10.4,11.7,12.4,19.5c0.6,2.3,0.9,4.6,1.2,6.9c0.2,0.7-0.1,1.3,0.2,2c0,8.5,0,16.9,0,25.4c0,1.6,0,3.1,0,4.7
	c-0.2,0.6,0,1.2-0.2,1.8c-0.6,2.5-1.3,4.8-3.7,6.2c-1.5,0.9-3.2,1.1-5,1.3c-0.6,0.2-1.2-0.1-1.8,0.2c-1.1,0-2.3,0-3.4,0
	c-0.6-0.2-1.2,0-1.8-0.2c-1.7-0.2-3.3-0.6-4.9-1.2c-2.4-0.9-3.4-2.8-4-5.2c-0.4-1.5-0.2-3-0.3-4.5c-0.1-0.4-0.1-0.9-0.1-1.3
	c0-8.6,0-17.2,0-25.8c0-0.4,0.1-0.9-0.1-1.3c-0.5-5.4-4.1-9-9.3-10c-2.7-0.5-5.5-0.4-8.1,0.7c-3.7,1.6-5.9,4.3-6.8,8.2
	c-0.3,1.3-0.3,2.5-0.3,3.8c0,9.2,0,18.3,0,27.5c-0.2,0.5,0,1-0.2,1.5c-0.3,1.1-0.6,2.2-1.1,3.3c-0.9,2-2.5,3.1-4.5,3.7
	c-1,0.3-2.1,0.5-3.1,0.6c-0.6,0.2-1.2-0.1-1.8,0.2c-1.2,0-2.4,0-3.6,0c-0.6-0.2-1.2,0-1.8-0.2c-1.6-0.1-3.2-0.4-4.7-1
	c-2.2-1-2.9-3.1-3.7-5.1c-0.3-0.8-0.2-1.7-0.3-2.5c-0.1-0.3-0.1-0.7-0.1-1.1c0-18.3,0-36.6,0-55c0-0.4-0.1-0.7,0.1-1.1
	c0.1-1.5,0.4-2.8,1-4.2c1.2-2.7,3.4-3.4,5.9-3.9c0.8-0.1,1.6-0.2,2.5-0.3C-142.9,26.7-141,26.7-139.1,26.9z"/>
<path class="st0" d="M136.5,75.3c0-7.6,0-15.3-0.1-22.9c-0.1-0.1-0.2-0.2-0.3-0.4c-0.4-0.4-0.9-0.6-1.4-0.4c-0.4,0-0.8,0-1.1,0.1
	c-1.2,0.1-2.4,0.1-3.6,0c-4.3-0.5-5.7-3.3-6.2-7c-0.2-1.2-0.1-2.4-0.3-3.6c-0.2-0.3-0.3-0.6-0.3-1c0.2-0.6,0.2-1.2,0-1.8
	c-0.1-0.4,0-0.7,0.3-1c0-0.4,0-0.7,0.1-1.1c0.2-0.4,0-0.9,0.2-1.3c0.1-1.7,0.7-3.2,1.3-4.8c0.7-1.6,1.9-2.4,3.6-2.6
	c0.6-0.1,1.3-0.2,1.9-0.3c0.6-0.1,1.3-0.1,1.9,0c0.9,0.2,1.9,0.4,2.8,0.3c0.4,0.1,0.8,0.2,1.2,0c0-5.9,0-11.8,0.1-17.6
	c0.2-0.5,0-0.9-0.1-1.3c0-0.3,0-0.7,0.3-0.9c0.5-0.7,0.6-1.6,0.9-2.4c0-0.6,0.3-0.9,0.8-1.2c1.2-1.3,2.8-1.6,4.3-2.1
	c0.4-0.6,0.9-0.4,1.4-0.2c0.5-0.1,0.9-0.1,1.4-0.2c0.9-0.2,1.8,0.1,2.7-0.2c0.4,0.1,0.8,0.1,1.3,0c0.7,0.3,1.5,0,2.2,0.2
	c0.6,0.1,1.3,0.4,1.9,0.3c0.7-0.2,1.2,0,1.7,0.5c0.2,0.3,0.6,0.3,0.9,0.4c0.8-0.1,1.3,0.3,1.7,0.8c1.9,1.3,2.3,3.3,2.9,5.3
	c0.2,0.4,0,0.9,0.2,1.3c0,5.7,0,11.5,0,17.2c0,0.2,0,0.4,0.3,0.4c0.5-0.2,1,0.1,1.5-0.2c0.5,0,0.9,0,1.4-0.1
	c0.6-0.2,1.2,0.1,1.8-0.2c0.7,0,1.4,0,2.1-0.1c1.8-0.1,3.5-0.1,5.3,0c0.6,0.1,1.3,0.2,1.9,0.2c0.6-0.4,1-0.2,1.4,0.2
	c3.9,1.1,5.4,4,5.8,7.7c0.2,0.4,0,0.9,0.2,1.3c0,2,0,3.9,0,5.9c-0.2,0.4,0,0.9-0.2,1.3c-0.1,0.6-0.2,1.3-0.4,1.9
	c0.1,0.5,0.1,0.9-0.4,1.2c-0.6,1.7-1.7,2.9-3.2,3.8c-0.5,0.7-1.2,0.7-1.9,0.7c-0.5,0.1-0.9,0.2-1.4,0.3c-0.4,0.2-0.9,0-1.3,0.2
	c-1.8,0-3.6,0-5.3,0c-0.6-0.3-1.3,0-2-0.2c-0.7,0-1.4,0-2.1-0.1c-0.7-0.2-1.4,0-2-0.2c-1.5-0.1-1.5-0.1-1.5,1.3c0,5.9,0,11.7,0,17.6
	c0,0.6,0,1.3,0.1,1.9c0.2,0.4-0.1,0.8,0.2,1.2c0.1,2.6,1.5,4.1,3.8,4.3c0.8,0.3,1.7,0,2.5,0.2c1.1,0,2.2,0,3.3,0.1
	c0.4,0.2,0.9,0,1.3,0.2c1.6,0.4,3.1,1,4.5,2c0.9,0.3,1,1,1.2,1.7c0.3,0.9,0.5,1.9,0.8,2.8c0.2,0.4,0,0.9,0.2,1.3
	c0,0.6,0,1.2,0.1,1.9c0.1,0.7,0.1,1.4,0,2.1c-0.1,0.8-0.2,1.6-0.2,2.4c0.3,0.6,0.5,1.2-0.2,1.6c-0.2,0.6-0.3,1.3-0.5,1.9
	c0.1,0.4-0.1,0.6-0.3,0.8c-0.9,2.4-2.9,3.3-5.1,4.1c-0.5,0.6-1.2,0.3-1.8,0.4c-0.2,0-0.4,0-0.6,0c-0.1,0.1-0.3,0.2-0.4,0.2
	c-2-0.3-4.1,0-6.1-0.2c-0.6,0-1.2,0-1.9-0.1c-0.5-0.2-1,0-1.5-0.2c-3.5-0.3-6.9-1.1-10.1-2.4c-1.1-0.5-2.3-0.9-3.3-1.7
	c-0.1,0-0.1,0-0.2,0c-1-0.3-1.7-1.1-2.5-1.6c-0.1-0.1-0.2-0.2-0.2-0.3c-1.4-1.4-2.7-2.9-3.8-4.6c-0.2-0.1-0.3-0.2-0.3-0.3
	c-0.2-0.4-0.3-0.8-0.5-1.1c-0.1-0.1-0.1-0.2-0.1-0.3c-0.1-0.3-0.3-0.6-0.4-0.8c-0.1-0.2-0.2-0.4-0.1-0.6c-1-2.3-1.5-4.7-1.9-7.2
	c-0.1-0.1-0.2-0.2-0.2-0.3c-0.3-0.6,0.1-1.1,0-1.7c0-0.4,0-0.8-0.1-1.1C136.5,76.5,136.7,75.8,136.5,75.3z"/>
<path class="st0" d="M-11.8,37.5c0,0.2-0.1,0.3-0.1,0.5c0.1,1-0.1,1.8-0.8,2.4c-0.3,0.7-0.7,1.4-1,2.2c-0.2,0.5-0.2,1.1-0.8,1.4
	c-0.8,1-1.6,2.1-2.3,3.1c-0.2,0.8-0.8,1-1.5,1.3c-2.3,1.5-4.6,1-6.9,0c-2.9-1.3-5.9-2.7-9.1-2.9c-0.4,0-0.7-0.4-1.1-0.2
	c-1.6-0.2-3.2-0.2-4.8,0c-1.6-0.1-3,0.3-4.4,1c-0.6,0.3-1,0.7-1,1.3c-0.2,0.4-0.2,0.8,0,1.3c-0.1,1.1,0.8,1.7,1.5,2.2
	c0.9,0.6,1.9,1.2,3.1,1.3c0.6-0.3,1,0.2,1.4,0.4c0.2,0,0.3,0.1,0.5,0.1c0.4-0.1,0.9-0.2,1.2,0.3c1.6,0.3,3.2,0.5,4.8,0.7
	c0.4-0.1,0.9-0.3,1.2,0.3c1,0.2,1.9,0.6,2.9,0.6c0.6-0.2,1,0.2,1.4,0.4c2.5,0.9,5.1,1.8,7.6,2.7c0.6,0.1,1.1,0.2,1.5,0.7
	c1.9,0.9,3.5,2.3,5,3.8c0.8,0.5,1.4,1.2,1.6,2.2c1.7,2.9,2.7,6,3.2,9.3c0.2,0.4,0,0.9,0.2,1.3c0,1.7,0,3.4,0,5.1
	c-0.2,0.5,0,1-0.2,1.5c-0.1,0.8-0.3,1.6-0.4,2.4c0.3,0.6,0.1,1-0.3,1.5c-1.2,4.2-3.2,8-6.8,10.6c-2.7,2-5.7,3.2-8.8,4.2
	c-2.8,0.9-5.6,1.4-8.5,1.7c-0.4,0.2-0.9,0-1.3,0.2c-0.5,0-1.1,0-1.6,0.1c-1.1,0.2-2.2-0.1-3.2,0.2c-0.7-0.1-1.5-0.1-2.2,0
	c-1-0.3-2,0-2.9-0.2c-4.5-0.2-8.8-1.2-13.1-2.7c-3.8-1.4-7.5-3.1-10.8-5.5c-1.3-0.9-1.9-2.2-2-3.7c-0.3-3.1,1-5.7,2.5-8.2
	c0.4-0.7,0.9-1.5,1.3-2.2c-0.1-0.7,0.5-0.9,0.9-1.2c0.8-1.8,2.2-2.9,4.2-3.2c1-0.1,1.9-0.1,2.9,0c0.5,0.2,0.9,0.4,1.4,0.3
	c1.2-0.1,2.2,0.4,3.1,1.2c0.3,0.3,0.6,0.5,1,0.4c0.5,0.2,1.1,0.2,1.4,0.8c0.2,0.2,0.5,0.4,0.8,0.4c0.5,0.1,1.1,0.2,1.4,0.8
	c0.1,0.2,0.3,0.2,0.5,0.2c0.5,0.2,1.1,0.2,1.5,0.7c3.3,1.6,6.7,2.3,10.3,1.8c0.4-0.2,0.9,0,1.3-0.2c0.2,0,0.4,0,0.6-0.1
	c0.6-0.1,1-0.6,1.7-0.4c0.5-0.3,1.1-0.5,1.5-0.9c0.9-0.8,1.2-1.7,0.3-2.7c-0.8-0.5-1.7-0.8-2.4-1.4c-2.3-0.7-4.6-1.2-6.9-1.5
	c-0.5-0.1-1.1,0.3-1.5-0.2c-2.9-0.6-5.8-1.4-8.5-2.7c-0.6-0.1-1.2-0.2-1.5-0.7c-2.5-1.1-4.8-2.3-7-3.9c-0.6-0.3-1.1-0.5-1.4-1.2
	c-1-0.8-1.6-1.9-2.4-2.9c-0.3-0.5-0.9-0.8-0.9-1.5c-0.1-0.1-0.2-0.3-0.3-0.4c-0.6-0.5-0.8-1.2-0.9-2c-0.2-0.5-0.4-1-0.6-1.4
	c-0.5-0.3-0.6-0.7-0.4-1.2c-0.9-2.3-1.1-4.8-1.2-7.2c-0.2-1.5,0.1-3-0.2-4.4c-0.1-0.3,0-0.6,0.2-0.8c0.1-0.3,0.2-0.6,0-1
	c-0.3-0.5,0-0.8,0.3-1.2c1.2-6,4.3-10.6,9.8-13.4c4.3-2.2,9-3.1,13.7-3.7c0.5-0.2,1,0.1,1.5-0.2c0.6,0,1.2,0,1.9-0.1
	c2-0.1,4-0.1,6,0c6.5,0.6,12.7,2.2,18.7,5.1c2.1,1,3.7,2.5,4.4,4.8C-11.7,36-11.7,36.7-11.8,37.5z"/>
<path class="st0" d="M-248.7,84.4c-2-5.4-5.7-9.3-10.6-12.2c-1.5-0.9-3.1-0.9-4.8-0.3c-1.9,0.7-3.6,1.6-5.2,2.7
	c-5.5,3.6-12.7,2.5-17-2.4c-5.5-6.3-2.9-16.5,5.1-19.9c4-1.7,8-1.6,11.7,0.8c1.3,0.8,2.6,1.7,4,2.4c4.2,2,6.9,1.6,10.2-1.6
	c2.5-2.5,4.5-5.3,5.9-8.5c1.5-3.4,1.6-6.7-1.3-9.5c-2.8-2.8-6.1-4.9-9.7-6.5c-3.7-1.7-7.6-2.6-11.6-3.2c-0.4-0.2-0.9,0-1.3-0.2
	c-1.9,0-3.7,0-5.6,0c-0.4,0.2-0.9,0-1.3,0.2c-0.9,0.1-1.7,0.3-2.6,0.4c-6.5,1.2-12.4,4-17.7,7.8c-4.6,3.3-7.8,7.7-10.3,12.7
	c-2,4-3.3,8.2-3.5,12.7c-0.2,0.7,0.1,1.4-0.2,2c0,1.3,0,2.6,0,3.9c0.3,0.7,0,1.5,0.2,2.3s0.2,1.6,0.3,2.4c0.5,3.8,1.7,7.3,3.4,10.7
	c2.4,4.8,5.6,8.9,10,12.1c6.1,4.5,12.7,7.6,20.2,8.6c0.4,0.2,0.9,0,1.2,0.2c0.5,0,0.9,0,1.4,0.1c0,0,0,0,0.1,0s0.2,0,0.3,0h0.1
	c0.1,0,0.3-0.1,0.4-0.1c0.2,0,0.5,0.1,0.6,0.1s0.2,0,0.3,0c0.1,0,0.3,0,0.4,0.1c0,0,0,0,0.1,0s0.3-0.1,0.4-0.1s0.2,0,0.2,0
	c0.3,0,0.6,0,0.8,0c0.6,0,1.2,0,1.8-0.1c0.4-0.2,0.9,0,1.3-0.2c1.1-0.2,2.2-0.3,3.4-0.5c1,0.2,1.9,0,2.6-0.7c1.7-0.7,3.4-1.3,5-2
	c0.4-0.2,0.9-0.2,1.2-0.7c0.3-0.2,0.6-0.4,1-0.5c0.9-0.2,1.6-0.7,2.2-1.4c0.3-0.2,0.5-0.5,0.9-0.6c1.1-0.3,1.8-1.1,2.5-1.9
	c1.6-1.6,3-3.4,3.7-5.7v-0.1c0-0.2,0-0.4,0.1-0.6c0-0.2,0-0.4,0.1-0.6C-248.6,85.9-248.4,85.1-248.7,84.4z"/>
<path class="st0" d="M303,30.8c1.3-0.7,2.7-1.4,3.9-2.2c2.3-1.4,4.9-2,7.6-2.4c1.3-0.1,2.6-0.1,3.8,0c1.8,0.3,3.7,0.6,5.5,1
	c0.7-0.3,1.2,0,1.7,0.5c1.6,0.6,3,1.5,4.3,2.7c0.6,0.2,0.8,0.7,0.9,1.2c0.1,0.1,0.1,0.3,0.2,0.4c0.7,0.5,0.8,1.1,0.6,1.9
	c0.1,1.1,0.1,2.2,0.2,3.3c-0.2,0.6,0,1.2-0.2,1.8c-0.6,2.9-1.3,5.8-2.7,8.5c-1.4,2.6-3.4,4.5-6.4,5c-0.8,0.1-1.6,0.1-2.4,0
	c-2.2,0-4-1.4-6.2-1.8c-1.1-0.2-2.1-0.5-3.2-0.3c-0.5,0.2-1-0.1-1.5,0.2c-3.8,0.3-8.2,3-9.2,6.9c-0.2,0.7-0.2,1.4-0.2,2.1
	c0,10,0,20.1,0,30.1c0,0.2,0,0.3,0.1,0.5c-0.3,1.1,0,2.1-0.2,3.2c-0.4,2.3-1,4.4-2.9,6.1c-1,0.9-2.2,1.4-3.4,1.6
	c-1.3,0.3-2.5,0.5-3.8,0.5c-1.4,0.2-2.8-0.2-4.2,0.3c-0.4,0-0.8,0-1.1-0.3c-1.1,0-2.2-0.4-3.4-0.5c-1.3,0-2.4-0.6-3.4-1.5
	c-0.7-0.7-1.2-1.5-1.7-2.4c-0.7-0.4-0.6-1.1-0.7-1.7c-0.1-1-0.2-1.9-0.3-2.9c-0.1-0.5-0.1-1-0.1-1.4c0-17.6,0-35.2,0-52.8
	c0-0.6,0-1.2-0.2-1.8c-0.1-0.4,0-0.8,0.3-1.1c0-2.3,1.1-4.3,2.2-6.2c0.5-0.8,1.2-1.2,2.1-1.3c1.7-0.5,3.3-0.8,5-1
	c1.9-0.1,3.8-0.1,5.7,0c1.1,0.2,2.2,0.3,3.4,0.5c1-0.2,1.7,0.2,2.4,0.8c2,1,2.9,2.8,3.6,4.7c0.1,0.1,0.2,0.2,0.2,0.4
	c0,0.4,0,0.4,0.2,0.4c0.2-0.3,0.4-0.7,0.8-0.8c0.4-0.4,0.8-0.8,1.2-1.2C302.1,31.2,302.5,30.9,303,30.8z"/>
<path class="st0" d="M-98.5,152.9c-0.2-0.3-0.4-0.5-0.3-1.1c0.7-3.4,1.2-6.9,1.8-10.3c0.4-2.5,1-5,1.4-7.4c0.4-2.1,0.5-4.2,1.2-6.2
	c0.5-0.1,1-0.2,1.4,0c1.3,2.8,2.7,5.6,4,8.4c1.2,2.5,2.3,5.1,3.5,7.6c0.1,0.2,0.1,0.5,0.4,0.5c0.2,0,0.3-0.2,0.4-0.4
	c1.6-3.5,3.2-7,4.9-10.5c0.9-1.9,1.6-3.9,2.8-5.7c0.5-0.1,1-0.2,1.4,0.1c0.4,2.1,0.8,4.3,1.2,6.4c0.7,3.9,1.4,7.8,2,11.7
	c0.3,1.9,0.7,3.9,1.1,5.8c0.1,0.4,0,0.7-0.2,1c-1.3,0.3-2.5,0.2-3.8,0.1c-1.1-0.5-0.8-1.7-0.9-2.5c-0.3-2.3-0.8-4.6-1.1-7
	c-0.1-1-0.3-2-0.4-3c0-0.3-0.1-0.6-0.4-0.7c-0.5-0.1-0.5,0.4-0.6,0.6c-1.9,4.2-3.8,8.5-5.6,12.7c-0.5,0.3-1.1,0.2-1.7,0.1
	c-2.1-4.5-4.2-9.1-6.4-13.8c-0.5,1.6-0.6,3-0.8,4.5c-0.5,2.7-0.8,5.5-1.2,8.2c-0.1,0.4-0.2,0.7-0.5,0.9
	C-95.9,153.1-97.2,153.1-98.5,152.9z"/>
<path class="st0" d="M-12.3,153.2c-2.1-2.3-4.2-4.6-6.3-6.9c-1.1-1.2-2.1-2.4-3.3-3.6c-1.6-1.7-3.1-3.4-4.7-5.2
	c-0.6,0.2-0.3,0.8-0.3,1.1c0,4.3,0,8.5,0,12.8c0,0.4,0.1,0.8-0.1,1.2c-0.1,0.1-0.2,0.1-0.2,0.2c-1.3,0.3-2.5,0.2-3.8,0.1
	c-0.4-0.3-0.4-0.7-0.4-1.2c0-7.6,0-15.3,0-22.9c0-0.4-0.2-0.8,0.4-0.9c0.4-0.1,0.8-0.1,1.2,0c3.8,4,7.5,8,11.3,12
	c0.8,0.9,1.7,1.8,2.5,2.7c0.2,0.2,0.3,0.5,0.7,0.4c0.3-0.1,0.2-0.5,0.2-0.7c0-4.1,0-8.2,0-12.2c0-2.1-0.1-1.8,1.9-1.8
	c0.9,0,1.8-0.2,2.6,0.2c0.3,0.3,0.2,0.6,0.2,0.9c0,7.6,0,15.3,0,22.9c0,0.3,0.1,0.6-0.2,0.9l0,0C-11.2,153.4-11.8,153.2-12.3,153.2z
	"/>
<path class="st0" d="M-161.8,152.9c-0.1,0-0.1,0.1-0.1,0.2c-0.5,0.4-1.1,0.1-1.6,0.1c-2.1-2.3-4.3-4.6-6.3-7c-0.9-1.1-1.9-2-2.8-3
	c-1.7-1.8-3.4-3.7-5.1-5.6c-0.6,0.3-0.3,0.8-0.3,1.1c0,4.3,0,8.5,0,12.8c0,0.4,0.1,0.8-0.1,1.2c-0.1,0.1-0.1,0.1-0.2,0.2
	c-1.3,0.3-2.5,0.2-3.8,0.1c-0.6-0.1-0.4-0.6-0.4-0.9c0-7.7,0-15.3,0-23c0-0.4-0.1-0.9,0.4-1.1c0.4-0.1,0.8-0.1,1.2,0
	c1.4,1.6,2.8,3.1,4.3,4.7c3.2,3.4,6.4,6.7,9.6,10.1c0.2,0.2,0.3,0.5,0.7,0.4c0.2-0.3,0.1-0.8,0.1-1.1c0-3.6,0-7.1,0-10.7
	c0-3.5-0.5-3,3.1-3c0.5,0,1.1-0.1,1.5,0.5c0.1,0.4,0.1,0.9,0.1,1.3c0,7.2,0,14.4,0,21.6C-161.7,152-161.7,152.5-161.8,152.9z"/>
<path class="st0" d="M183.5,151.9c-0.2,0-0.4,0-0.4,0.2c-0.3,0.2-0.5,0.5-1,0.5c-0.6,0.2-1.1,0.3-1.7,0.5c-1.4,0.2-2.7,0.1-4.1,0
	c-1.7-0.3-3.4-0.8-4.7-2.2c-0.4-0.2-0.8-0.3-0.8-0.8c-0.2-0.2-0.4-0.4-0.6-0.6c-0.4-0.2-0.5-0.7-0.7-1c-0.9-1.4-1.2-2.9-1.3-4.5
	c-0.1-5.1-0.2-10.2,0-15.3c0.4-0.7,1-0.4,1.6-0.4c3.5,0,3.1-0.5,3.1,3.1c0,4,0,8,0,12c0,2.8,1.2,4.4,3.4,5.1c0.3,0.2,0.7-0.1,1,0.2
	c2.9,0.6,5.7-1.8,5.8-5.4c0.1-4.5,0-9,0-13.5c0-1,0.2-1.5,1.4-1.4c3.9,0.1,3.4-0.4,3.4,3.4c0,3.3-0.1,6.6,0,10
	c0.2,3.8-0.7,7.1-3.6,9.7C184.3,151.7,183.8,151.7,183.5,151.9z"/>
<path class="st0" d="M-210.1,152.9c-0.4-0.3-0.4-0.7-0.4-1.2c0-7.5,0-14.9,0-22.4c0-0.8,0.2-1.2,1.1-1.2c4.4,0.1,8.9,0,13.3,0
	c1,0,1.4,0.3,1.4,1.3c0,3,0,3-3,3c-2.4,0-4.8,0-7.2,0c-0.8,0-1,0.2-1,1c0.1,1.5,0.1,3,0.1,4.5c1.8,0.3,3.6,0,5.4,0.1
	c1.1,0,2.1-0.1,3.2,0.1c0.7,0.6,1,3.3,0.5,4c-0.3,0.4-0.8,0.3-1.2,0.3c-2.4,0-4.7,0-7.1,0c-0.7,0-1,0.2-0.9,0.9
	c0.1,1.7-0.2,3.4,0.2,5.1c2.1,0.3,4.1,0,6.2,0.1c1.5,0.1,3-0.2,4.5,0.1c0.2,1.4,0.6,2.8-0.2,4.1
	C-200.2,153.1-205.1,153.1-210.1,152.9z"/>
<path class="st0" d="M-59.2,128.4c0.3-0.4,0.7-0.2,1.1-0.2c4.4,0,8.7,0,13.1,0c1.1,0,1.5,0.4,1.5,1.5c-0.1,3.1,0.4,2.8-2.7,2.8
	c-2.5,0-4.9,0-7.4,0c-0.8,0-1,0.3-1,1c0.1,1.5,0.1,3,0.1,4.5c1.8,0.3,3.6,0,5.4,0.1c1.1,0.1,2.3-0.1,3.4,0.1
	c0.9,1.1,0.4,2.4,0.4,3.7c0,0.6-0.7,0.6-1.2,0.6c-2.4,0-4.8,0-7.2,0c-0.8,0-1,0.2-0.9,0.9c0.1,1.7-0.2,3.4,0.1,5.1c2,0.3,4,0,6,0.1
	c1.6,0.1,3.2-0.2,4.8,0.1c0.3,1.4,0.7,2.8-0.2,4.1c-5,0.1-9.9,0.2-14.9,0c-0.1-0.1-0.2-0.2-0.3-0.3c-0.1-0.4-0.1-0.9-0.1-1.3
	c0-7.2,0-14.4,0-21.6C-59.2,129.3-59.3,128.9-59.2,128.4z"/>
<path class="st0" d="M-244.4,151.6c-0.5-1-0.9-2-1.4-3c-1.6-3.7-3.3-7.3-4.9-11c0.1-0.8-0.5-1.3-0.9-1.9c-0.3-0.3-0.5-0.7-0.5-1.2
	c-0.1-0.6-0.2-1.1-0.7-1.5c-0.3-0.3-0.5-0.7-0.5-1.2c0.1-0.8-0.5-1.3-0.9-1.9c-0.3-0.6-0.7-1.3-1-1.9c-0.4-0.3-0.8-0.2-1.2-0.1
	c-0.7,0.9-0.9,2-1.5,2.9c-0.4,0.6-1,1.1-0.9,1.9c-0.2,0.4-0.4,0.8-0.5,1.2c-0.4,0.6-1,1.1-0.9,1.9c-0.2,0.4-0.4,0.8-0.5,1.2
	c-0.4,0.6-1,1.1-0.9,1.9l-0.5,1.2c-0.4,0.6-1,1.1-0.9,1.9c-0.2,0.4-0.4,0.8-0.5,1.2c-0.3,0.6-1.1,1-0.9,1.9
	c-0.1,0.2-0.1,0.5-0.2,0.7c-0.9,1.9-1.7,3.7-2.6,5.6c-0.2,0.5-0.7,1.1,0.2,1.5c1.2,0.1,2.4,0.1,3.6,0c0.5-0.3,0.7-0.7,0.9-1.2
	c0.6-1,0.8-2.2,1.5-3.2c1.3-0.3,2.7-0.1,4-0.1c2.1,0,4.3-0.2,6.4,0.1c0.5,1.1,1.2,2.1,1.5,3.3c0.1,0.5,0.3,1,0.9,1
	c1.3,0.1,2.6,0.2,3.8-0.1C-244.1,152.4-244.2,152-244.4,151.6z M-253.4,144.2c-0.1,0-0.1,0-0.1,0c-0.1,0-0.2,0.1-0.3,0.1
	c-0.7,0-1.7,0.1-2.5-0.1l0,0h-0.1c-0.1,0.1-0.2,0.1-0.3,0.1c-0.1,0-0.3,0-0.4,0c-0.5,0-0.9,0.1-1.4-0.1c-0.3-0.1-0.3-0.5-0.2-0.7
	c0.3-0.6,0.5-1.3,1-1.8l0,0c-0.1-0.6,0.4-1.1,0.6-1.7c0.1-0.1,0.1-0.2,0.2-0.2l0,0c0.1-0.3,0.2-0.5,0.4-0.8c0.1-0.1,0.1-0.2,0.2-0.2
	c0-0.1,0-0.2,0-0.3c-0.2-0.6,0.8-0.9,1-0.3c0,0.1,0,0.2,0.1,0.3c0,0,0,0,0.1,0.1c0.3,0.6,0.7,1.1,0.9,1.7c0.2,0.4,0.3,0.9,0.4,1.4
	c0.1,0.2,0.2,0.4,0.3,0.6v0.1l0,0c0,0,0,0.1,0.1,0.1c0,0.1,0,0.1,0,0.2c0.2,0.1,0.2,0.3,0.2,0.5c0.1,0.1,0.2,0.2,0.2,0.3
	C-252.8,143.5-252.9,144.2-253.4,144.2z"/>
<path class="st0" d="M6.6,152.9c-0.7-0.2-0.4-0.8-0.4-1.2c0-6,0-12.1,0-18.1c0-0.9-0.2-1.2-1.2-1.2c-1.3,0.1-2.6,0-3.8,0
	c-0.4,0-0.9,0.2-1.1-0.5c-0.2-1-0.1-2.1,0-3.1c0.1-0.6,0.5-0.7,1-0.7c4.8,0,9.7,0,14.5,0c1,0,1.3,0.3,1.3,1.3c0,3.7,0.2,2.9-2.9,3
	c-1,0-2.4-0.4-3,0.2c-0.6,0.6-0.2,2-0.2,3c0,5.2,0,10.5,0,15.7c0,0.6,0,1.1-0.4,1.6C9.2,153.1,7.9,153.1,6.6,152.9z"/>
<path class="st0" d="M-221.2,129.3c0-0.8-0.4-1.1-1.2-1.1c-4.9,0-9.8,0-14.7,0c-0.4,0-0.8-0.1-0.9,0.5c0,0.4-0.1,0.8-0.1,1.1
	c0.1,0.3,0.1,0.7,0,1c0,0.4,0,0.8,0.1,1.2c0.1,0.6,0.6,0.5,0.9,0.5c1.3,0,2.6,0.1,4,0c0.9,0,1.2,0.2,1.2,1.2c-0.1,6,0,11.9,0,17.9
	c0,0.5-0.3,1.1,0.5,1.4c0.5,0,1,0.1,1.4,0.1c0.2-0.1,0.4-0.1,0.6-0.1c0.2,0,0.4,0,0.6,0.1c0.4,0,0.8-0.1,1.2-0.1l0.2-0.2
	c0-0.1,0.1-0.1,0.1-0.2c0-0.1,0-0.3,0.1-0.4c0-0.1,0-0.1,0-0.2c0-0.1,0-0.1,0-0.2c0-0.1,0-0.2,0-0.3c0-5.8,0-11.7,0-17.5
	c0-0.4-0.1-0.9,0.1-1.3c1-0.2,2-0.1,3-0.1C-220.8,132.5-221.2,132.8-221.2,129.3z"/>
<path class="st0" d="M201.5,152.9c-0.1-0.1-0.2-0.2-0.3-0.3c-0.1-2.2,0-4.3-0.1-6.5c0-5.5,0-11,0-16.4c0-0.4-0.1-0.9,0.1-1.3
	c1.3-0.5,2.6-0.2,3.9-0.2c0.8,0,0.7,0.8,0.7,1.4c0,5.9,0,11.7,0,17.6c0,1.2,0.3,1.5,1.4,1.4c2.2-0.1,4.5,0,6.7,0
	c0.6,0,1.2,0,1.6,0.6c0.1,1,0.1,2.1,0,3.1c0,0.1-0.1,0.1-0.1,0.2c-0.1,0.3-0.3,0.4-0.6,0.4C210.4,152.9,205.9,153.1,201.5,152.9z"/>
<path class="st0" d="M-114.8,152.9c-0.6-0.1-0.4-0.6-0.4-0.9c0-7.6,0-15.1,0-22.7c0-0.9,0.3-1.1,1.2-1.1c4,0.1,3.5-0.6,3.5,3.5
	c0,6.5,0,13,0,19.6c0,0.6,0.1,1.2-0.4,1.7C-112.3,153.1-113.5,153.1-114.8,152.9z"/>
<path class="st0" d="M263.6,90.7c0-0.2-0.1-0.4-0.1-0.6c0-17,0-34,0-51c0-0.6,0-1.2,0-1.8c-0.3-0.8,0-1.7-0.2-2.5
	c-0.1-0.4-0.2-0.8-0.2-1.2c0.1-1.2-0.3-2.3-1.2-3.1c-0.7-1.2-1.6-2-2.9-2.5c-1.6-0.7-3.4-0.8-5.1-1.1c-1.8-0.1-3.7-0.1-5.5,0
	c-0.2,0-0.4,0.1-0.6,0.1c-3.9,0.3-7.3,1.4-8.7,5.5c-0.5,0.5-0.5,1.1-0.4,1.7c-0.1-0.3-0.2-0.5-0.6-0.5c-0.7-0.7-1.4-1.5-2.2-2.2
	c-0.3-0.6-0.7-1-1.4-1c-0.8-0.4-1.6-0.9-2.4-1.3c-0.3-0.6-0.8-0.7-1.4-0.6c-1.8-0.6-3.6-1.1-5.5-1.5c-0.4-0.2-0.9,0-1.3-0.2
	c-1.3,0-2.6,0-3.9,0c-0.4,0.2-0.9,0-1.3,0.2c-1.2,0.1-2.3,0.6-3.5,0.6c-0.6,0.2-1.3-0.2-1.7,0.5c-1.1,0.5-2.3,0.9-3.4,1.4
	c-0.7-0.1-1.2,0.3-1.7,0.8c-0.9,0.6-1.7,1.1-2.6,1.7c-1,0.3-1.8,0.8-2.4,1.7c-0.6,0.6-1.3,1.1-1.9,1.7c-0.7,0.2-1.2,0.6-1.4,1.2
	c-0.1,0.3-0.4,0.5-0.7,0.7c-0.7,0.3-1,0.8-1.2,1.4c-1,1.3-2.1,2.6-3.1,3.8c-0.6,0.3-1,0.7-1,1.4c-0.8,1.4-1.6,2.9-2.4,4.3
	c-0.5,0.4-0.7,0.9-0.6,1.5c-0.1,0.3-0.2,0.6-0.3,0.9c-0.7,0.6-1,1.3-0.7,2.2c-0.4,1.6-0.8,3.2-1.2,4.8c-0.4,0.5-0.6,1.1-0.2,1.7
	c0.2,0.4,0,0.8,0,1.2c-0.1,2.1-0.1,4.2,0,6.2c0.1,1,0.2,2.1,0.3,3.1c-0.4,0.7-0.1,1.3,0.2,1.9c0.2,0.7,0.7,1.3,0.5,2.1
	c0.1,0.6,0,1.2,0.5,1.7c0.5,1.1,0.9,2.2,1.4,3.4c0,1.3,0.6,2.3,1.5,3.1c0.3,0.5,0.6,1,0.9,1.5c-0.1,0.8,0.4,1.3,1,1.7
	c0.3,0.2,0.5,0.3,0.5,0.7c0.1,0.5,0.4,1,0.9,1.2s0.7,0.8,1,1.2c0.4,0.7,0.7,1.4,1.5,1.7c3.5,3.5,7.2,6.6,11.7,8.7
	c1.3,0.7,2.5,1.5,4.1,1.4c0.4,0.3,1,0.1,1.4,0.5c0.1,0.1,0.2,0.1,0.3,0.2c0.4,0.1,0.8,0.1,1.3,0c0.1,0,0.1,0,0.2,0
	c1.3,0.3,2.6,0.1,3.8,0.3c0.6,0.1,1.1,0.1,1.7,0c2.2-0.1,4.3-0.3,6.4-0.9c3.5-0.9,6.3-2.8,8.7-5.4c0.7-0.5,0.9,0,1.2,0.5
	c0,0.1,0,0.2,0,0.2c0.1,0.6,0.1,1.3,0.7,1.7c0.5,0.6,0.9,1.4,1.6,1.9c1.6,1.1,3.2,1.7,5.1,1.8c0.4,0.2,0.9,0,1.2,0.2
	c0.7,0,1.4,0,2.1,0.1c0.7,0.1,1.4,0.1,2.1,0c0.7,0,1.4,0,2.1-0.1c0.6-0.1,1.1,0.2,1.7,0.1c0.1,0,0.2,0,0.4-0.1
	c0.6-0.1,1.1-0.5,1.7-0.7c2.3-0.8,3.8-2.2,4.6-4.5c0.3-0.9,0.5-1.8,0.7-2.7C263.7,92.3,263.4,91.5,263.6,90.7z M225.9,76.3
	c-6.9,0-12.7-5.6-12.6-12.3c0-6.9,5.7-12.5,12.5-12.4c6.7,0,12.2,5.7,12.2,12.5C237.9,70.7,232.3,76.3,225.9,76.3z"/>
<path id="dentro_do_O" class="st1" d="M-188.5,63.8c0,7.8-6.2,14-14,14s-13.7-6-13.7-13.9c0-7.8,5.9-13.8,13.6-13.8
	C-194.3,50-188.5,55.6-188.5,63.8z"/>
<path class="st0" d="M72.8-77.1c0-7.2,0-14.4,0-21.6c0-0.4,0-0.9-0.1-1.3c0-0.6-0.1-1.1-0.2-1.7c0.2-0.7,0.1-1.3-0.5-1.7
	c-0.5-1.4-1.3-2.7-2.2-3.8c-0.6-1.6-2-2.4-3.6-3c-0.2-0.2-0.5-0.3-0.7-0.4c-0.3-0.3-0.7-0.7-1.2-0.5c-0.5-0.2-1-0.3-1.5-0.4
	c-0.4-0.5-0.8-0.4-1.2-0.1c-0.2,0-0.3,0-0.5,0c-0.1-0.1-0.2-0.1-0.3-0.1c-0.4-0.2-0.8-0.1-1.2-0.1c-2.9,0-5.7,0-8.6,0
	c-4.9-0.1-9.8-0.1-14.7-0.1c-0.3-0.2-0.6-0.2-0.9,0.1c0,0.8,0,1.6,0,2.4c0,0,0.1,0.1,0.1,0.1c0,2.2,0,4.4,0,6.6c0,1.8,0,3.7,0,5.7
	c0,0.1,0,0.1,0,0.2c0,2.3,0,4.6,0,6.8c0,2.7,0,5.3,0,7.9c0,3.2,0,6.3,0,9.3c0,0,0,0,0.1,0c0,0,0,0.1-0.1,0.1c0,2.8,0,5.7,0,8.6
	c2.3,0,4.6-0.1,6.9-0.1c0,0,0-0.1,0-0.1c0,0,0,0,0,0c2.4,0.1,4.7,0.1,7,0c2,0.1,3.9,0.1,5.7,0c1.5,0.1,3,0.1,4.6,0
	c0.1,0.1,0.2,0.2,0.4,0.2c0.6-0.1,1.1,0,1.7-0.1c1-0.1,1.9-0.4,2.7-0.8c-0.1,0-0.2,0-0.3,0c0.1,0,0.2,0,0.3-0.1
	c0.9-0.3,1.8-0.7,2.6-1.4c0,0,0,0,0,0.1c1.1-0.6,1.8-1.5,2.5-2.4c0.1,0,0.3,0,0.4,0c0.8-0.9,1.4-2,1.9-3.1c0.3-0.3,0.6-0.5,0.4-1
	c0-0.2,0-0.3,0-0.5c0.5-0.3,0.5-0.7,0.2-1.2c0-0.4,0.1-0.8,0.2-1.2C72.9-76.2,72.8-76.7,72.8-77.1z"/>
<path class="st0" d="M129,138.7c0-0.1,0-0.3-0.1-0.4c-0.1-0.3,0.2-0.8-0.3-1c-0.5-1.4-1.1-2.8-1.9-4.1c-0.2-0.4-0.3-0.8-0.8-1
	c-0.5-0.5-0.9-0.9-1.4-1.4c-0.1-0.5-0.6-0.6-1-0.8c-1.9-1.1-3.8-1.9-6-2.2c-0.9-0.1-1.7-0.1-2.6,0c-1.7,0.3-3.4,0.6-5,1.5
	c-0.4,0.1-0.8,0.2-1.1,0.6c-1.3,0.8-2.3,1.9-3.2,3.2c-0.4,0.2-0.5,0.7-0.6,1.1c-0.2,0.4-0.4,0.7-0.5,1.1c-0.1,0.3-0.5,0.6-0.4,1
	c-0.4,0.8-0.5,1.7-0.6,2.6c-0.1,1.1-0.1,2.2,0,3.3c0,0.2,0,0.4,0.1,0.7s-0.1,0.7,0.2,1c0.3,0.8,0.4,1.7,1,2.5
	c0.3,0.3,0.2,0.9,0.7,1.1c0.1,0.3,0.3,0.6,0.5,0.8c0.2,0.3,0.3,0.7,0.7,0.9c0.2,0.2,0.5,0.5,0.7,0.7c0.2,0.4,0.5,0.5,0.9,0.7
	c0.7,0.7,1.5,1.2,2.5,1.5c0.3,0.1,0.6,0.5,1,0.4c0.7,0.4,1.6,0.4,2.4,0.6c1.4,0.1,2.7,0.1,4.1,0c0.6-0.1,1.1-0.2,1.7-0.4
	c0.3,0,0.6,0.1,0.7-0.3c0.8-0.4,1.6-0.7,2.4-1.1c0.4-0.2,0.8-0.3,1-0.7c0.1-0.1,0.2-0.1,0.3-0.2c0.9-0.3,1.6-1,1.9-1.9
	c0.3-0.5,0.7-1,1-1.4c0.4-0.3,0.7-0.7,0.7-1.2c0.3-1.3,0.7-2.6,1-3.8C129.2,141,129.2,139.9,129,138.7z M116.4,148.7
	c-4.5,0-8.1-3.6-8-8.1c0-4.5,3.6-8.1,8.1-8.1c4.4,0,8,3.7,8,8.1C124.5,145.1,120.9,148.7,116.4,148.7z"/>
<path class="st0" d="M271.3,143.9c-0.3-0.7-0.3-0.9,0.4-1.3c2.7-1.5,4.4-3.8,4.3-7c-0.1-4.1-3.4-7.3-7.6-7.4c-3.3-0.1-6.6,0-9.9,0
	c-0.4,0-0.8-0.1-0.9,0.5c-0.1,0.2-0.1,0.5-0.1,0.7c0,7.5,0,15,0,22.6c0,0.2,0,0.5,0.1,0.7c0.1,0.1,0.2,0.2,0.3,0.3
	c1.2,0.2,2.4,0,3.6,0.2c0.4,0.1,0.6-0.1,0.7-0.5c0-2.2,0-4.5,0-6.7c0-2.6,0-2.6,2.6-2.7c0.8,0,1.2,0.2,1.6,1
	c1.2,2.5,2.5,4.9,3.7,7.3c0.3,0.6,0.2,1.5,1.2,1.5c1.3,0,2.6,0,3.9,0c0.4,0,0.7-0.2,0.6-0.6C274.5,149.5,272.8,146.7,271.3,143.9z
	 M268.1,139.5c-1.7,0-3.4,0-5.2,0c-0.6,0-0.8-0.2-0.7-0.8c0-0.9,0-1.8,0-2.8h0.1c0-1.1-0.4-2.6,0.1-3.2c0.6-0.7,2.2-0.2,3.3-0.2
	c0.8,0,1.6,0,2.4,0c1.9,0.1,3.4,1.6,3.3,3.4C271.5,137.8,270,139.4,268.1,139.5z"/>
<path class="st0" d="M246.8,150.8c-0.7-1.4-1.4-2.8-1.9-4.3c-0.2-0.5-0.2-1.2-0.7-1.5c-0.7-1.4-1.4-2.8-1.9-4.3
	c-0.2-0.5-0.2-1.2-0.7-1.5c-0.3-0.3-0.4-0.7-0.5-1.1c-0.2-0.5-0.1-1.2-0.7-1.5c-0.7-1.4-1.4-2.8-1.9-4.3c-0.2-0.5-0.2-1.2-0.7-1.5
	c-0.5-1-0.9-1.9-1.4-2.9c-0.4-0.3-0.8-0.2-1.2-0.1c-1.2,1.9-1.9,4.1-2.9,6c-0.5,0.4-0.5,1-0.7,1.5c-0.3,0.5-0.5,1.1-0.8,1.6
	c-0.5,0.4-0.5,1-0.7,1.5c-0.3,0.5-0.5,1.1-0.8,1.6c-0.5,0.4-0.5,1-0.7,1.5c-0.3,0.5-0.5,1.1-0.8,1.6c-0.5,0.4-0.5,1-0.7,1.5
	c-0.3,0.5-0.5,1.1-0.8,1.6c-0.5,0.4-0.5,1-0.7,1.5c-0.3,0.5-0.5,1.1-0.8,1.6c-0.5,0.4-0.5,1-0.7,1.5c-0.1,0.6-1,1.3,0,1.9
	c1.1,0.2,2.3,0,3.4,0.1c0.5,0.1,0.7-0.3,0.9-0.7c0-0.2,0-0.4,0.2-0.5c0.6-0.3,0.6-0.9,0.7-1.5c0.1-0.4,0.2-0.8,0.5-1.2
	c0.7-0.7,1.5-0.9,2.5-0.8c0.8,0.1,1.7,0,2.5,0c1.9,0.1,3.9-0.2,5.8,0.1c0.2,0.5,0.2,1.1,0.7,1.4c0.2,0.4,0.4,0.8,0.5,1.1
	c0.2,0.6,0.1,1.5,1,1.7c0.1,0,0.1,0,0.2,0.1c1.3,0.1,2.6,0.2,3.8,0c0.1-0.1,0.2-0.2,0.3-0.3C247.6,151.9,247.5,151.2,246.8,150.8z
	 M232.2,144.4c1.1-2.6,2.3-5.1,3.5-7.8c1.2,2.7,2.4,5.2,3.5,7.8C236.8,144.4,234.5,144.4,232.2,144.4z"/>
<path class="st0" d="M90.4,129.2c-0.3-0.2-0.5-0.5-1-0.5c-0.5-0.1-0.9-0.2-1.4-0.3c-3.3-0.5-6.5-0.1-9.8-0.2c-0.7,0-0.7,0.3-0.7,0.9
	c0,7.5,0,15.1,0,22.6c0,0.4,0,0.9,0.4,1.2c1.2,0.2,2.4,0,3.6,0.1c0.5,0,0.6-0.3,0.7-0.7c0-2.5,0-5-0.1-7.5c0-0.7,0.2-0.9,0.9-0.8
	c1.5,0,2.9,0,4.4,0c0.4-0.3,0.9,0.2,1.2-0.2c0.2-0.1,0.4-0.3,0.7-0.3c0.4,0.1,0.7-0.2,1-0.5c0.2-0.1,0.5-0.3,0.7-0.4
	c0.4-0.2,0.9-0.3,0.9-0.8c0.1-0.1,0.1-0.1,0.2-0.2c0.5-0.1,0.5-0.6,0.8-1c0.1-0.2,0.2-0.3,0.3-0.5c0.2-0.2,0.5-0.4,0.4-0.7
	C95.1,134.6,94.2,131.9,90.4,129.2z M86,139.7c-1,0-1.9-0.1-2.9,0c-0.8,0.1-1-0.3-1-1c0.1-0.8,0-1.7,0-2.5c0-0.9,0-1.8,0-2.8
	c0-0.6,0.2-0.9,0.8-0.8c1.1,0,2.2,0,3.2,0c2.2,0.1,3.7,1.6,3.7,3.5C89.8,138.1,88.2,139.6,86,139.7z"/>
<path class="st0" d="M157.6,134.9c-0.2-0.5-0.3-0.9-0.3-1.4c0.1-0.4-0.2-0.7-0.5-1c-1.4-2.3-3.4-3.9-6.1-4.2
	c-3.1-0.3-6.3-0.1-9.4-0.1c-0.3,0-0.4,0.2-0.5,0.4c-0.1,0.3-0.1,0.5-0.1,0.8c0,7.4,0,14.7,0,22.1c0,0.3,0,0.6,0.1,0.8
	c0,0.1,0.1,0.1,0.1,0.2c0.1,0.2,0.2,0.5,0.5,0.4c1.3-0.1,2.5,0.1,3.8-0.2l0,0c0.6-0.2,0.4-0.7,0.4-1.1c0.1-2.6-0.2-5.1,0.1-7.7
	c0.4,0,0.9,0,1.3-0.1c1.7-0.1,3.5,0.2,5.1-0.3c0.4,0.1,0.7-0.2,1-0.4c1.5-0.8,2.7-2,3.7-3.4c0.2-0.2,0.4-0.4,0.4-0.7
	c0.2-0.7,0.4-1.4,0.6-2.2C157.7,136.3,157.8,135.6,157.6,134.9z M152.1,138.5c-0.7,0.7-1.6,1.1-2.5,1.2c-1.2,0-2.3,0-3.5,0
	c-0.6,0-0.8-0.2-0.7-0.8c0-1,0-1.9,0-3.1c0.1-0.9-0.5-2.7,0.2-3.1c1.4-0.6,3.1-0.4,4.7-0.1C153,133.3,154,136.4,152.1,138.5z"/>
<path class="st2" d="M-18.3-66.2c1.4,0,2.8,0,4.3,0c-1.4,0.5-2.8,0.1-4.3,0.2C-18.3-66-18.3-66.1-18.3-66.2z"/>
<g id="XMLID_1_">
	<g>
		<path class="st0" d="M2.9-23c-1,0.5-2.2,0.2-3.2,0.3c-0.4,0-0.9,0-1.3,0c-0.6,0-1.2,0.1-1.8-0.3c-0.4-0.1-0.8,0.1-1-0.2
			c0-0.1,0-0.2,0.1-0.3c-0.1,0.1-0.2,0.2-0.3,0.3c-2.5-0.4-4.8-1.6-6.8-3.5c-2.4-2.1-3.9-4.7-4.5-7.8c-0.3-1.2-0.3-2.4-0.3-3.7
			c0-8,0-16,0-24c-0.7-0.3-1.4,0-2.1-0.2c0,0,0,0-0.1,0c0.1,0,0.1,0.1,0.2,0.1c0.1,0,0.1,0.1,0.1,0.1l-0.1,0.1
			c-3.3-0.1-6.5-0.1-9.6-0.1c-4.9,0-9.9,0.1-14.8,0c-1.6,0-3-0.5-4.3-1.2c-4.6-2.2-7.2-5.9-8.4-10.8c-0.1-0.4,0-0.8,0-1.2
			c0-8.5-0.1-16.9,0.1-25.4c0.1-4,2.2-7.2,5.2-9.8c0.9-0.8,1.9-1.6,3.1-1.8c0.2-0.1,0.3-0.3,0.5-0.4c0.7-0.7,1.6-0.6,2.4-0.7
			c2.7-0.4,5.4-0.3,8.1-0.2c0,0,0.1,0.1,0.1,0.1c0,0,0,0,0,0c2.8,0,5.5,0,8.3,0c0-0.1,0-0.1,0-0.2c2.6,0,5.1,0,7.7,0
			c0,0,0,0.1,0,0.1c1.4,0,2.8-0.1,4.2-0.1c0.1-0.1,0.2-0.1,0.3-0.2c0.5-0.1,1-0.2,1.4,0.3c0.3,1.3,0.3,2.5,0,3.8
			c-0.5,0.6-1.1,0.2-1.7,0.5c-1.1,0.2-2.4,0.1-3.5,0.1c-0.2,0-0.5,0-0.8-0.5c0,0,0,0,0,0.1c-0.4,0.3-0.9,0.3-1.4,0.3
			c-1.6,0-3.3,0-4.9,0c-0.4,0.1-0.9,0.2-1.3-0.2c0,0,0,0.1,0,0.1c-0.4,0.3-0.9,0.3-1.4,0.3c-1.6,0-3.3,0-4.9,0
			c-0.5-0.1-1.1,0-1.4-0.5c-0.1,0-0.1-0.1-0.2-0.1c0,0.1,0,0.1,0,0.2c-0.6,0.4-1.2,0.3-1.8,0.3c-2.3,0.1-4.6-0.2-6.9,0.4
			c-0.8,0.2-1.5,0.8-2.4,0.7c-0.1,0.5-0.5,0.7-0.8,1c-2.6,2.3-3.8,5.1-3.8,8.6c0.1,7.2,0.1,14.4,0,21.6c0,3.2,1.2,5.7,3.4,7.9
			c0.3,0.3,0.8,0.6,0.9,1.1c0,0,0,0.1,0,0.1c0.5-0.3,0.8,0,1.2,0.2c1.6,0.8,3.3,1.1,5.1,1.1c3.6,0,7.1,0,10.7,0
			c0.6,0,1.2-0.1,1.7,0.3c0,0,0,0.1,0,0.1c0,0,0,0,0,0c0.2-0.3,0.6-0.4,1-0.4c2.7,0,5.3-0.1,8,0c0.2,0,0.4,0.1,0.6,0.2
			c0,0,0.1,0.1,0.1,0.1c1.3-0.3,2.6,0,3.9-0.2c0.1,0,0.3-0.1,0.4-0.1c1.5,0.4,1.9,0.9,2.1,2.7c0.1,7.4,0,14.9,0,22.3c0,3,0,6.1,1,9
			c0,0.1,0,0.1,0,0.2c0.5,0.1,0.7,0.6,1,1c1.3,1.8,3.1,2.9,5.1,3.7c0.4,0.1,0.9,0.1,0.9,0.6c0,0,0.1,0,0.1,0c0.5-0.4,1-0.4,1.6-0.4
			c7.6,0,15.1,0,22.7,0c0.5,0,1,0,1.5,0.3c0,0.1,0,0.2,0,0.2c0.1,0,0.1,0,0.2,0c0.9-0.6,1.7-0.9,2.7-0.8c0.9-1,2.1-1.5,3-2.4
			c1.3-1.3,2.1-2.7,2.7-4.4c0.1-0.3,0.1-0.6,0.3-0.8c0,0,0-0.1,0-0.1c0-9.4,0-18.9,0-28.3c0-0.1,0-0.1,0-0.2c1.6,0,2.6,0,4,0h0.7
			c-0.2,0.5-0.1,0.9-0.1,1.4c0,8.3,0,16.6,0,24.8c-0.1,0.2,0,0.7-0.1,1.1c-0.3,3.3-1.4,6.2-3.6,8.7c-0.1,0-0.1,0-0.1-0.1
			c0,0,0,0,0,0.1c-1.8,2.1-3.9,3.6-6.5,4.3c-0.1,0.1-0.2,0.1-0.3,0.1c-0.7,0.3-1.5,0.3-2.2,0.5c-0.3,0.3-0.7,0.3-1.1,0.3
			c-1.3-0.1-2.7,0.3-4-0.3c-2.4,0.3-4.6,0.3-6.9,0c0,0,0,0.1,0,0.1C8.1-22.9,5.5-22.7,2.9-23C2.9-23.1,2.9-23,2.9-23z"/>
	</g>
	<g>
	</g>
</g>
<path class="st0" d="M124.9,91.9c0-1.9,0-3.7,0-5.6c-0.2-0.4,0-0.9,0-1.2c-0.1-0.6-0.4-1.2-0.3-1.9c0.1-0.1,0.1-0.2,0.1-0.3
	c0-0.3-0.1-0.6-0.2-0.9c0-0.2-0.2-0.2-0.3-0.3c-0.4-1.1-1.1-2.1-2.2-2.8c-0.4-0.7-0.9-1-1.7-0.9c-1.5-0.3-3-0.3-4.5-0.4
	c-0.4-0.2-0.9,0-1.3-0.2c-0.8,0-1.4-0.2-1.9-0.7c-0.3-0.5-0.2-1.3-0.9-1.7c-0.1-0.3-0.1-0.6-0.1-0.9c-0.3-0.5,0-1-0.2-1.5
	c0-1-0.1-1.9-0.1-2.9c0-21.5,0-43.1,0-64.6c0-1,0-2,0-3c-0.3-0.8,0-1.6-0.2-2.3c-0.5-2.7-1.4-5.2-3.9-6.6c-1.6-0.9-3.3-1.1-5-1.4
	c-0.6-0.2-1.2,0-1.8-0.2c-0.9,0-1.9,0-2.9,0c-0.7,0.3-1.3,0-2,0.2c-2.5,0.4-5.1,0.6-7,2.5c-0.7,0.2-0.9,0.8-1,1.4
	c-0.4,1.4-1,2.8-1,4.3c-0.2,1.1,0.1,2.1-0.2,3.2c0.1,0.4,0.1,0.7,0.1,1.1c0,22.4,0,44.9,0,67.3c0,0.4-0.1,0.7-0.1,1.1
	c0.3,1.5,0,2.9,0.2,4.4c0.1,0.7,0.1,1.3,0.1,1.9c0.3,0.5,0,1,0.2,1.5c0.2,2.2,0.6,4.5,1.1,6.7c0.4,2.1,1.3,4.1,2.1,6.1
	c0,0.1,0,0.3,0.1,0.4c0.2,0.3,0.4,0.6,0.6,0.9c0,0.1,0.1,0.2,0.2,0.2c1.3,1.8,3,3,5,3.9c0,0.1,0.1,0.1,0.2,0.2
	c0.2,0.1,0.5,0.2,0.8,0.4c0.2,0.1,0.4,0.2,0.6,0.1c2.4,0.4,4.6,1.3,7,1.4c0.4,0.2,0.9,0,1.3,0.2c0.5,0.1,0.9,0.1,1.4,0.1
	c0.6,0.2,1.2,0,1.8,0.2c1.1,0.1,2.2,0.1,3.3,0.1c2,0.1,4.1,0.1,6.2,0c0.5-0.2,1.1,0,1.7-0.3c1.7-0.8,3.1-2,3.8-3.8
	c0.3-0.4,0.5-0.8,0.4-1.3c0-0.1,0-0.1,0-0.2c0.1-0.4-0.1-0.9,0.2-1.4c0.1-0.1,0.2-0.2,0.3-0.3C125.3,93.3,124.6,92.6,124.9,91.9z"/>
<path class="st0" d="M-163.5,61.5c0-0.5,0-1.1-0.1-1.6c-0.2-0.4,0-0.9-0.2-1.3c-0.6-4-1.5-7.8-3.3-11.4c-3.9-8-10-13.7-17.7-17.8
	c-3.8-2-7.9-3.2-12.1-3.9c-0.4-0.2-0.9,0-1.3-0.2l-1.1-0.1c-2.1-0.1-4.2-0.1-6.2,0c-0.4,0-0.8,0-1.2,0.1c-0.4,0.2-0.8,0-1.2,0.2
	c-5.8,0.9-11.1,2.8-15.9,6.1c-2.8,1.9-5.3,4.2-7.7,6.6c-3.1,3.2-5.3,6.9-7,10.9c-1.4,3.3-2.2,6.9-2.5,10.5c-0.2,0.4,0,0.9-0.2,1.3
	v6.3c0.2,0.5,0,1,0.2,1.5c0.1,1,0.1,2,0.3,2.9c1.1,4.6,2.7,9,5.4,13c2.3,3.3,4.9,6.3,8,9c3.5,3,7.4,5.1,11.6,6.8
	c3.3,1.3,6.7,2.1,10.2,2.2c0.2,0.1,0.4,0.1,0.7,0.1c0.1,0,0.2,0,0.3,0s0.2,0,0.2,0c0.4,0,0.8,0,1.2,0.1c0.6-0.1,1.2-0.1,1.7,0
	c0.7-0.2,1.5,0,2.2-0.2c0.7-0.1,1.5-0.2,2.2-0.3c5.1-0.7,9.8-2.3,14.3-4.9c4.2-2.4,7.7-5.6,10.7-9.3c5.1-6.3,7.8-13.5,8.4-21.6
	C-163.4,64.8-163.4,63.1-163.5,61.5z M-201.4,77.7c-7.8,0-13.7-6-13.7-13.9c0-7.8,5.9-13.8,13.6-13.8c8.4,0,14.1,5.6,14.1,13.8
	C-187.4,71.6-193.6,77.7-201.4,77.7z"/>
<path class="st0" d="M-127,138.7c-0.1-0.3-0.2-0.7-0.3-1c-1.1-4.8-5.3-8.6-10.2-9.3c-3.2-0.4-6.5-0.1-9.7-0.2
	c-0.9,0-1.2,0.3-1.2,1.1c0,7.6,0,15.1,0,22.7c0,0.4-0.1,0.8,0.4,0.9c3.2,0.1,6.4,0.1,9.6,0c1.7-0.3,3.4-0.6,4.9-1.5
	c3.5-2.1,5.6-5.1,6.4-9.1C-126.9,141.1-126.9,139.9-127,138.7z M-131.7,142c-0.3,3.9-3.5,6.9-7.3,7.1c-1.2,0-2.5,0-3.7,0
	c-0.7,0-0.9-0.2-0.9-0.9c0-2.4,0-4.8,0-7.2s0-4.7,0-7.1c0-0.8,0.2-1,1-1c1.6,0.1,3.3-0.1,4.9,0.2
	C-133.8,134.1-131.3,137.7-131.7,142z"/>
<path class="st0" d="M46.4,130.8c-2-1.6-4.2-2.4-6.7-2.9c-1-0.1-1.9-0.1-2.9,0c-0.1,0-0.2,0.1-0.4,0.1c-4.7,0.6-8.1,3.1-9.9,7.4
	c-1.9,4.4-1.4,8.8,1.3,12.8c2,2.9,4.8,4.5,8.2,5c1.4,0.1,2.9,0.1,4.3,0c3.1-0.6,5.6-2.1,7.6-4.4C52.6,143.2,51.7,135.2,46.4,130.8z
	 M38.2,149.1c-4.5,0-8.1-3.6-8.1-8.1c0-4.4,3.7-8.1,8.1-8.1s8.1,3.7,8.1,8.1C46.3,145.5,42.6,149.1,38.2,149.1z"/>
<path class="st0" d="M33.5-138.4c0-0.5,0.2-1.2-0.2-1.7c0,0.1,0,0.1,0,0.2c0.1-1.9-0.7-3.4-1.4-5c-0.2-0.5-0.3-0.9-0.8-1.2
	c-0.1,0-0.1-0.1-0.2-0.2c-0.4-1.1-1.2-1.8-2.3-2.2c-2.1-1.5-4.4-2.4-7-2.5c-4.1-0.1-8.2,0-12.3,0c0,0,0-0.1,0-0.1
	c-1.4,0-2.7,0-4.1,0c0,0.1,0.1,0.1,0.1,0.2c0,0-0.1-0.1-0.1-0.1c-1.6,0-3.1,0-4.6,0c-0.9,0-1.9,0-2.9,0c0,0-0.1,0-0.1,0
	c-1.2,0.1-2.4,0.4-3.5,0.7c-0.3,0.2-0.7,0.1-0.8,0.5c0,0,0,0,0-0.1c-0.1-0.1-0.2-0.1-0.3,0c-1.6,0.8-3.2,1.7-4.1,3.3
	c-0.4,0-0.4,0.3-0.5,0.5c-0.4,0.3-0.8,0.6-0.8,1.2c-0.5,0.8-1,1.6-1.2,2.5c0,0.1,0,0.2,0,0.3c0-0.1-0.1-0.2-0.1-0.2
	c-0.1,0.7-0.2,1.4-0.4,2.1c-0.2,1.1-0.1,2.2-0.1,3.2c0,0.2,0.1,0.4,0.2,0.5c-0.1,2.3-0.1,4.7,0,7c0,0.1,0.1,0.1,0.1,0.2
	c-0.1,4.7-0.1,9.5-0.1,14.3h0v1.2h47.5v-1.2h0C33.5-122.7,33.5-130.6,33.5-138.4z"/>
<path class="st0" d="M30.9-75.7c-0.1-0.1-0.1-0.2-0.2-0.3C30.8-75.9,30.9-75.8,30.9-75.7c0.1-1.8,0.1-3.5,0.1-5.2l0,0h0
	c0-2.6,0-5,0-7.6c0-2.9,0-5.8,0-8.8c-0.1-4-0.1-7.9,0.1-12c-0.1,0-0.2,0-0.3,0v-0.3h-45.1v0.5h0c0,3.4,0,6.6,0,10
	c0.1,0.1,0.1,0.2,0.2,0.3c-0.1,4.1-0.1,8.2,0,12.2c-0.1,4-0.1,7.8,0,11.6c0.1,0,0.2,0,0.2,0c-0.1,0-0.3,0.2-0.4,0.4
	c-0.3,2.7-0.2,5.3-0.1,8c0,0.2,0.1,0.3,0.2,0.5c1.1,0.2,1.8,0.9,2,2.1c14.4,0,28.7,0,43,0c0-0.1,0-0.2,0-0.2c0,0,0.1,0,0.1,0
	c0.1-1.2,0.1-2.4,0-3.6C31-70.4,31-73.1,30.9-75.7z M-7.1-109H-7c0,0-0.1,0.1-0.1,0.1C-7.1-109-7.1-109-7.1-109z M10-109L10-109
	C10-109,10-109,10-109C10-109,10-109,10-109z"/>
</svg>
