<?xml version="1.0" encoding="utf-8"?>
<!-- Generator: Adobe Illustrator 22.1.0, SVG Export Plug-In . SVG Version: 6.00 Build 0)  -->
<svg version="1.1" id="Camada_1" xmlns="http://www.w3.org/2000/svg" xmlns:xlink="http://www.w3.org/1999/xlink" x="0px" y="0px"
	 viewBox="0 0 16 16" style="enable-background:new 0 0 16 16;" xml:space="preserve">
<style type="text/css">
	.st0{fill:#214477;}
</style>
<g id="XMLID_1_">
	<g>
		<path class="st0" d="M-3-109.9C-3-109.9-3-109.9-3-109.9C-3-109.9-3-110-3-109.9C-3-110-3-109.9-3-109.9z M-18.3-62.4
			C-18.3-62.4-18.3-62.4-18.3-62.4C-18.3-62.4-18.3-62.4-18.3-62.4C-18.3-62.4-18.3-62.4-18.3-62.4z M-16.2-62.1
			c-0.7,0-1.3-0.1-1.9-0.1l-0.1,0.1c-3.3-0.1-6.5-0.1-9.6-0.1c-4.9,0-9.9,0.1-14.8,0c-1.6,0-3-0.5-4.3-1.2
			c-4.6-2.2-7.2-5.9-8.4-10.8c-0.1-0.4,0-0.8,0-1.2c0-8.5-0.1-16.9,0.1-25.4c0.1-4,2.2-7.2,5.2-9.8c0.9-0.8,1.9-1.6,3.1-1.8
			c0.2-0.1,0.3-0.3,0.5-0.4c0.7-0.7,1.6-0.6,2.4-0.7c2.7-0.4,5.4-0.3,8.1-0.2c0,0,0.1,0.1,0.1,0.1c0,0,0,0,0,0c2.8,0,5.5,0,8.3,0
			c0-0.1,0-0.1,0-0.2c2.6,0,5.1,0,7.7,0c0,0,0,0.1,0,0.1c1.8,0,3.7-0.1,5.5-0.1c0.1-0.1,0.3-0.1,0.4-0.2c0.7-0.1,1.3-0.2,1.9,0.3
			c3,0,6,0,9,0c0.1-0.1,0.2-0.1,0.3-0.1c1.8,0,3.7,0,5.5,0c1.2,0,2.3,0.1,3.5,0.1c0.1,0,0.2-0.1,0.2-0.1c1.9,0,3.8,0,5.8,0
			c0.4,0,0.7,0.1,1,0.1c0,0.1,0,0.2,0,0.3c0-0.1,0.1-0.2,0.1-0.3c1.8,0,3.7-0.1,5.5-0.1c1,0,2.1,0.1,3.1,0.1c0.5,0,1.1-0.1,1.7-0.1
			c1.4,0,2.7,0,4.1,0c0.6,0,1.3,0.1,1.9,0.1c0,0,0,0,0,0c0.7-0.4,1.5-0.2,2.3-0.2c0.5,0,1.1-0.1,1.5,0.3c0.7,0.1,1.3,0.4,1.8,1
			c0.4,0.3,0.5,0.7,0.5,1.1c0,0.8,0,1.6,0,2.4c0,2.2,0.1,4.4,0,6.6c0,1.9,0,3.8,0,5.8c0.1,2.3,0,4.6,0,7c0,2.6,0,5.3,0,7.9
			c0,3.1,0,6.2,0,9.4c0,2.8,0.2,5.6-0.1,8.4c-0.2,0.5-0.1,0.9-0.1,1.4c0,8.3,0,16.6,0,24.8c-0.1,0.2,0,0.7-0.1,1.1
			c-0.3,3.3-1.4,6.2-3.6,8.7c-0.1,0-0.1,0-0.1-0.1c0,0,0,0,0,0.1c-1.8,2.1-3.9,3.6-6.5,4.3c-0.1,0.1-0.2,0.1-0.3,0.1
			c-0.7,0.3-1.5,0.3-2.2,0.5c-0.3,0.3-0.7,0.3-1.1,0.3c-1.3-0.1-2.7,0.3-4-0.3c-2.4,0.3-4.6,0.3-6.9,0c0,0,0,0.1,0,0.1
			c-2.7,0.1-5.3,0.3-7.9-0.1c0,0,0,0.1,0,0.1c-1,0.5-2.2,0.2-3.2,0.3c-0.4,0-0.9,0-1.3,0c-0.6,0-1.2,0.1-1.8-0.3
			c-0.4-0.1-0.8,0.1-1-0.2c0-0.1,0-0.2,0.1-0.3c-0.1,0.1-0.2,0.2-0.3,0.3c-2.5-0.4-4.8-1.6-6.8-3.5c-2.4-2.1-3.9-4.7-4.5-7.8
			c-0.3-1.2-0.3-2.4-0.3-3.7C-16.2-46.2-16.2-54.1-16.2-62.1z M-16.2-62.2C-16.2-62.2-16.2-62.2-16.2-62.2
			C-16.2-62.2-16.3-62.2-16.2-62.2C-16.3-62.2-16.2-62.2-16.2-62.2z M0.4-109.6c-2.5,0-5,0-7.4,0c-0.7,0.5-1.5,0.3-2.3,0.3
			c-1.1,0-2.1,0-3.2,0c-0.4,0-0.9,0-1.4-0.2c-0.1,0-0.2,0-0.3,0.1c-1.5,0.2-3.1,0.1-4.6,0.1c-0.3,0-0.7,0-1-0.5c0,0,0,0,0,0.1
			c-0.4,0.3-0.9,0.3-1.4,0.3c-1.6,0-3.3,0-4.9,0c-0.4,0.1-0.9,0.2-1.3-0.2c0,0,0,0.1,0,0.1c-0.4,0.3-0.9,0.3-1.4,0.3
			c-1.6,0-3.3,0-4.9,0c-0.5-0.1-1.1,0-1.4-0.5c-0.1,0-0.1-0.1-0.2-0.1c0,0.1,0,0.1,0,0.2c-0.6,0.4-1.2,0.3-1.8,0.3
			c-2.3,0.1-4.6-0.2-6.9,0.4c-0.8,0.2-1.5,0.8-2.4,0.7c-0.1,0.5-0.5,0.7-0.8,1c-2.6,2.3-3.8,5.1-3.8,8.6c0.1,7.2,0.1,14.4,0,21.6
			c0,3.2,1.2,5.7,3.4,7.9c0.3,0.3,0.8,0.6,0.9,1.1c0,0,0,0.1,0,0.1c0.5-0.3,0.8,0,1.2,0.2c1.6,0.8,3.3,1.1,5.1,1.1
			c3.6,0,7.1,0,10.7,0c0.6,0,1.2-0.1,1.7,0.3c0,0,0,0.1,0,0.1c0,0,0,0,0,0c0.2-0.3,0.6-0.4,1-0.4c2.7,0,5.3-0.1,8,0
			c0.2,0,0.4,0.1,0.6,0.2c0,0,0.1,0.1,0.1,0.1c1.3-0.3,2.6,0,3.9-0.2c0.1,0,0.3-0.1,0.4-0.1c1.5,0.4,1.9,0.9,2.1,2.7
			c0.1,7.4,0,14.9,0,22.3c0,3,0,6.1,1,9c0,0.1,0,0.1,0,0.2c0.5,0.1,0.7,0.6,1,1c1.3,1.8,3.1,2.9,5.1,3.7c0.4,0.1,0.9,0.1,0.9,0.6
			c0,0,0.1,0,0.1,0c0.5-0.4,1-0.4,1.6-0.4c7.6,0,15.1,0,22.7,0c0.5,0,1,0,1.5,0.3c0,0.1,0,0.2,0,0.2c0.1,0,0.1,0,0.2,0
			c0.9-0.6,1.7-0.9,2.7-0.8c0.9-1,2.1-1.5,3-2.4c1.3-1.3,2.1-2.7,2.7-4.4c0.1-0.3,0.1-0.6,0.3-0.8c0,0,0-0.1,0-0.1
			c0-9.4,0-18.9,0-28.3c0-0.2,0-0.3,0-0.5c0-1.2,0-2.4,0-3.6c-0.1-2.6,0-5.2,0-7.8c0-1.8-0.1-3.5,0-5.3c-0.1-2.6,0-5.1,0-7.7
			c0-2.9-0.1-5.9,0-8.8c-0.1-3.4,0-6.8,0-10.2c0-0.4,0-0.9-0.1-1.3c-0.2-0.6-0.9-0.4-1.2-0.7c-2.5,0-4.9,0-7.4,0c-2.1,0-4.2,0-6.2,0
			c-1.9,0-3.8,0-5.8,0c-1.3,0-2.6,0-3.8,0c-0.6,0-1.1-0.1-1.7-0.1c0,0,0-0.1,0-0.1c0,0-0.1,0-0.1,0c0,0.1,0,0.1,0,0.2
			C3.3-109.7,1.8-109.6,0.4-109.6z"/>
	</g>
	<g>
	</g>
</g>
</svg>
